<svg width="24" height="24" viewBox="0 0 24 24" fill="none" xmlns="http://www.w3.org/2000/svg">
<g id="Group 64">
<g id="&#233;&#159;&#179;&#232;&#137;&#178; 1">
<path id="Vector" d="M12.8999 2.6666C12.8999 2.42791 12.8051 2.19899 12.6363 2.03021C12.4675 1.86142 12.2386 1.7666 11.9999 1.7666C11.7612 1.7666 11.5323 1.86142 11.3635 2.03021C11.1948 2.19899 11.0999 2.42791 11.0999 2.6666V21.3333C11.0999 21.572 11.1948 21.8009 11.3635 21.9697C11.5323 22.1384 11.7612 22.2333 11.9999 22.2333C12.2386 22.2333 12.4675 22.1384 12.6363 21.9697C12.8051 21.8009 12.8999 21.572 12.8999 21.3333V2.6666ZM7.33327 5.76527C7.8306 5.76527 8.23327 6.16793 8.23327 6.66527V17.3319C8.23327 17.5706 8.13845 17.7995 7.96966 17.9683C7.80088 18.1371 7.57196 18.2319 7.33327 18.2319C7.09457 18.2319 6.86565 18.1371 6.69687 17.9683C6.52809 17.7995 6.43327 17.5706 6.43327 17.3319V6.6666C6.43327 6.16927 6.83593 5.7666 7.33327 5.7666V5.76527ZM2.6666 8.43193C3.16393 8.43193 3.5666 8.8346 3.5666 9.33194V14.6653C3.5666 14.904 3.47178 15.1329 3.303 15.3017C3.13421 15.4704 2.9053 15.5653 2.6666 15.5653C2.42791 15.5653 2.19899 15.4704 2.03021 15.3017C1.86142 15.1329 1.7666 14.904 1.7666 14.6653V9.33327C1.7666 8.83594 2.16927 8.43327 2.6666 8.43327V8.43193ZM16.6666 5.76527C17.1639 5.76527 17.5666 6.16793 17.5666 6.66527V17.3319C17.5666 17.4501 17.5433 17.5672 17.4981 17.6763C17.4529 17.7855 17.3866 17.8848 17.303 17.9683C17.2194 18.0519 17.1202 18.1182 17.011 18.1634C16.9018 18.2087 16.7848 18.2319 16.6666 18.2319C16.5484 18.2319 16.4314 18.2087 16.3222 18.1634C16.213 18.1182 16.1138 18.0519 16.0302 17.9683C15.9466 17.8848 15.8803 17.7855 15.8351 17.6763C15.7899 17.5672 15.7666 17.4501 15.7666 17.3319V6.6666C15.7666 6.16927 16.1693 5.7666 16.6666 5.7666V5.76527ZM22.2333 9.33327C22.2333 9.21508 22.21 9.09805 22.1648 8.98885C22.1195 8.87966 22.0532 8.78044 21.9697 8.69687C21.8861 8.6133 21.7869 8.54701 21.6777 8.50178C21.5685 8.45655 21.4515 8.43327 21.3333 8.43327C21.2151 8.43327 21.098 8.45655 20.9889 8.50178C20.8797 8.54701 20.7804 8.6133 20.6969 8.69687C20.6133 8.78044 20.547 8.87966 20.5018 8.98885C20.4565 9.09805 20.4333 9.21508 20.4333 9.33327V14.6666C20.4333 14.7848 20.4565 14.9018 20.5018 15.011C20.547 15.1202 20.6133 15.2194 20.6969 15.303C20.7804 15.3866 20.8797 15.4529 20.9889 15.4981C21.098 15.5433 21.2151 15.5666 21.3333 15.5666C21.4515 15.5666 21.5685 15.5433 21.6777 15.4981C21.7869 15.4529 21.8861 15.3866 21.9697 15.303C22.0532 15.2194 22.1195 15.1202 22.1648 15.011C22.21 14.9018 22.2333 14.7848 22.2333 14.6666V9.33327Z" fill="url(#paint0_linear_41_3049)"/>
</g>
</g>
<defs>
<linearGradient id="paint0_linear_41_3049" x1="1.7666" y1="11.9999" x2="22.2333" y2="11.9999" gradientUnits="userSpaceOnUse">
<stop stop-color="#3F5EFB"/>
<stop offset="1" stop-color="#FC466B"/>
</linearGradient>
</defs>
</svg>
