<svg width="24" height="24" viewBox="0 0 24 24" fill="none" xmlns="http://www.w3.org/2000/svg">
<g id="Group 66">
<g id="&#230;&#156;&#172;&#229;&#156;&#159;&#229;&#140;&#150; 1" clip-path="url(#clip0_41_3059)">
<g id="Union">
<path fill-rule="evenodd" clip-rule="evenodd" d="M12.0167 1C15.3137 1 17.9515 3.82336 17.9515 7.3544C17.9515 9.68569 15.5285 13.1185 13.9049 15.1473L13.7528 15.3365C13.1549 16.0746 12.6877 16.5974 12.5297 16.7665C12.3979 16.9223 12.2112 17.0085 12.017 17.0022C11.7974 17.0022 11.5778 16.9241 11.5048 16.7665C11.3468 16.5974 10.8795 16.0746 10.2816 15.3365L10.1296 15.1473C8.5056 13.1181 6.08296 9.68569 6.08296 7.3544C6.08259 3.82226 8.72004 1 12.0167 1ZM12.0167 2.50115C9.4726 2.50115 7.45631 4.65974 7.45631 7.3544C7.45631 8.37815 8.27788 10.133 9.6719 12.1578C10.3979 13.2098 11.1806 14.2221 12.0167 15.1902C12.1927 14.9848 12.3931 14.7461 12.6006 14.4935C13.2195 13.7391 13.807 12.9599 14.3618 12.1578C15.7558 10.133 16.5774 8.37815 16.5774 7.3544C16.5774 4.65974 14.5607 2.50115 12.0167 2.50115ZM11.9989 20.7218L16.7269 19.2511C16.8699 19.2062 17.0244 19.2136 17.1624 19.272L21.5212 21.1109L20.6255 11.0593L19.4662 10.7334C19.2215 10.6736 19.0262 10.473 18.9569 10.2101C18.8867 9.94721 18.9535 9.66378 19.1307 9.47017C19.3078 9.27657 19.5677 9.20397 19.808 9.28024L21.433 9.73491C21.7135 9.81338 21.9187 10.0752 21.9468 10.3898L22.9968 22.1768C23.0197 22.4356 22.9182 22.689 22.7289 22.8467C22.6391 22.9234 22.5295 22.9737 22.4126 22.9919C22.2956 23.0101 22.1758 22.9955 22.0667 22.9497L16.8826 20.7625L12.2839 22.1947C12.1954 22.2368 12.0984 22.2578 12.0004 22.2563C11.9027 22.2577 11.8059 22.2367 11.7177 22.1947L7.11895 20.7625L1.93447 22.9497C1.82532 22.9958 1.70536 23.0106 1.58816 22.9926C1.47096 22.9745 1.36118 22.9242 1.27123 22.8474C1.08153 22.6897 0.980029 22.436 1.00328 22.1764L2.05405 10.3898C2.0821 10.0755 2.28657 9.81411 2.56634 9.73528L4.19288 9.28061C4.55384 9.19554 4.91148 9.43717 5.00301 9.82768C5.09454 10.2185 4.88712 10.6186 4.53354 10.7334L3.37426 11.0593L2.4785 21.1109L6.83845 19.272C6.97759 19.2133 7.13039 19.206 7.27397 19.2511L11.9993 20.7222L11.9989 20.7218ZM14.4618 6.4791C14.4618 5.02819 13.3856 3.85227 12.058 3.85227C10.7304 3.85227 9.65417 5.02819 9.65417 6.4791C9.65417 7.93002 10.7304 9.1063 12.058 9.1063C13.3856 9.1063 14.4618 7.93002 14.4618 6.4791ZM11.0279 6.4791C11.0279 5.85723 11.4889 5.35342 12.058 5.35342C12.6268 5.35342 13.0881 5.85723 13.0881 6.4791C13.0881 7.10098 12.6271 7.60478 12.058 7.60478C11.4892 7.60478 11.0279 7.10098 11.0279 6.4791Z" fill="url(#paint0_linear_41_3059)"/>
<path d="M13.9049 15.1473L14.0608 15.2725L14.061 15.2722L13.9049 15.1473ZM13.7528 15.3365L13.9082 15.4623L13.9087 15.4617L13.7528 15.3365ZM12.5297 16.7665L12.3834 16.6297L12.377 16.6373L12.5297 16.7665ZM12.017 17.0022L12.0235 16.8022H12.017V17.0022ZM11.5048 16.7665L11.6862 16.6824L11.6727 16.6533L11.6509 16.6299L11.5048 16.7665ZM10.2816 15.3365L10.1257 15.4617L10.1262 15.4623L10.2816 15.3365ZM10.1296 15.1473L9.97341 15.2722L9.97367 15.2725L10.1296 15.1473ZM6.08296 7.3544L6.28296 7.3544L6.28296 7.35438L6.08296 7.3544ZM9.6719 12.1578L9.50717 12.2712L9.50729 12.2714L9.6719 12.1578ZM12.0167 15.1902L11.8653 15.3209L12.0172 15.4968L12.1685 15.3203L12.0167 15.1902ZM12.6006 14.4935L12.7551 14.6204L12.7552 14.6203L12.6006 14.4935ZM14.3618 12.1578L14.5263 12.2716L14.5265 12.2712L14.3618 12.1578ZM16.7269 19.2511L16.7863 19.4421L16.7868 19.4419L16.7269 19.2511ZM11.9989 20.7218L11.9395 20.5309L11.6221 20.6296L11.8581 20.8638L11.9989 20.7218ZM17.1624 19.272L17.0844 19.4562L17.0846 19.4563L17.1624 19.272ZM21.5212 21.1109L21.4435 21.2951L21.75 21.4244L21.7204 21.0931L21.5212 21.1109ZM20.6255 11.0593L20.8247 11.0416L20.8124 10.9041L20.6796 10.8668L20.6255 11.0593ZM19.4662 10.7334L19.5204 10.5407L19.5136 10.5391L19.4662 10.7334ZM18.9569 10.2101L19.1502 10.1591L19.1501 10.1586L18.9569 10.2101ZM19.1307 9.47017L19.2782 9.60519L19.2782 9.60519L19.1307 9.47017ZM19.808 9.28024L19.7474 9.47098L19.7541 9.47284L19.808 9.28024ZM21.433 9.73491L21.3791 9.92751L21.3791 9.92752L21.433 9.73491ZM21.9468 10.3898L22.146 10.372L22.146 10.372L21.9468 10.3898ZM22.9968 22.1768L23.196 22.1592L23.196 22.159L22.9968 22.1768ZM22.7289 22.8467L22.6009 22.693L22.5989 22.6946L22.7289 22.8467ZM22.4126 22.9919L22.4433 23.1895L22.4433 23.1895L22.4126 22.9919ZM22.0667 22.9497L21.989 23.134L21.9893 23.1341L22.0667 22.9497ZM16.8826 20.7625L16.9604 20.5783L16.893 20.5498L16.8231 20.5716L16.8826 20.7625ZM12.2839 22.1947L12.2244 22.0038L12.2108 22.008L12.198 22.0141L12.2839 22.1947ZM12.0004 22.2563L12.0035 22.0563L11.9975 22.0564L12.0004 22.2563ZM11.7177 22.1947L11.8036 22.0141L11.7907 22.008L11.7772 22.0038L11.7177 22.1947ZM7.11895 20.7625L7.17842 20.5716L7.10859 20.5498L7.04121 20.5783L7.11895 20.7625ZM1.93447 22.9497L1.85673 22.7654L1.85667 22.7655L1.93447 22.9497ZM1.58816 22.9926L1.61865 22.7949L1.61865 22.7949L1.58816 22.9926ZM1.27123 22.8474L1.40111 22.6953L1.39907 22.6936L1.27123 22.8474ZM1.00328 22.1764L1.20248 22.1942L1.20249 22.1942L1.00328 22.1764ZM2.05405 10.3898L1.85485 10.372L1.85484 10.372L2.05405 10.3898ZM2.56634 9.73528L2.5125 9.54266L2.51209 9.54277L2.56634 9.73528ZM4.19288 9.28061L4.14696 9.08577L4.13904 9.08799L4.19288 9.28061ZM5.00301 9.82768L5.19774 9.78208L5.19773 9.78204L5.00301 9.82768ZM4.53354 10.7334L4.58772 10.926L4.59529 10.9236L4.53354 10.7334ZM3.37426 11.0593L3.32012 10.8668L3.18729 10.9041L3.17505 11.0416L3.37426 11.0593ZM2.4785 21.1109L2.27929 21.0931L2.24976 21.4244L2.55622 21.2951L2.4785 21.1109ZM6.83845 19.272L6.76075 19.0877L6.76073 19.0877L6.83845 19.272ZM7.27397 19.2511L7.21403 19.4419L7.21452 19.4421L7.27397 19.2511ZM11.9993 20.7222L11.9399 20.9132L12.1402 20.5802L11.9993 20.7222ZM18.1515 7.3544C18.1515 3.72597 15.4368 0.8 12.0167 0.8V1.2C15.1906 1.2 17.7515 3.92075 17.7515 7.3544H18.1515ZM14.061 15.2722C14.876 14.2539 15.8945 12.8796 16.7103 11.4641C17.5214 10.0568 18.1515 8.57637 18.1515 7.3544H17.7515C17.7515 8.46372 17.1701 9.86533 16.3638 11.2644C15.5621 12.6553 14.5574 14.0119 13.7487 15.0223L14.061 15.2722ZM13.9087 15.4617L14.0608 15.2725L13.749 15.022L13.5969 15.2112L13.9087 15.4617ZM12.6758 16.903C12.8375 16.73 13.3078 16.2035 13.9082 15.4623L13.5974 15.2106C13.002 15.9456 12.5378 16.4648 12.3836 16.6299L12.6758 16.903ZM12.0106 17.2021C12.2696 17.2105 12.5137 17.0951 12.6824 16.8956L12.377 16.6373C12.2821 16.7495 12.1527 16.8065 12.0235 16.8023L12.0106 17.2021ZM11.3233 16.8506C11.3873 16.9886 11.5075 17.076 11.6271 17.1273C11.748 17.1791 11.8855 17.2022 12.017 17.2022V16.8022C11.929 16.8022 11.8469 16.7863 11.7848 16.7597C11.7215 16.7325 11.6953 16.702 11.6862 16.6824L11.3233 16.8506ZM10.1262 15.4623C10.7266 16.2035 11.197 16.73 11.3586 16.903L11.6509 16.6299C11.4966 16.4648 11.0325 15.9456 10.437 15.2106L10.1262 15.4623ZM9.97367 15.2725L10.1257 15.4617L10.4375 15.2112L10.2855 15.022L9.97367 15.2725ZM5.88296 7.3544C5.88296 8.57637 6.51295 10.0567 7.32399 11.464C8.13974 12.8794 9.15826 14.2537 9.97341 15.2722L10.2857 15.0223C9.47691 14.0117 8.47213 12.6551 7.67056 11.2643C6.86429 9.86525 6.28296 8.46373 6.28296 7.3544H5.88296ZM12.0167 0.8C8.59695 0.8 5.88258 3.72488 5.88296 7.35442L6.28296 7.35438C6.2826 3.91965 8.84313 1.2 12.0167 1.2V0.8ZM7.65631 7.3544C7.65631 4.75793 9.59493 2.70115 12.0167 2.70115V2.30115C9.35026 2.30115 7.25631 4.56155 7.25631 7.3544H7.65631ZM9.83663 12.0444C9.14401 11.0384 8.59644 10.1034 8.22283 9.29667C7.8467 8.48448 7.65631 7.82196 7.65631 7.3544H7.25631C7.25631 7.91059 7.4767 8.63738 7.85986 9.46476C8.24555 10.2976 8.80578 11.2525 9.50717 12.2712L9.83663 12.0444ZM12.168 15.0594C11.3367 14.0968 10.5584 13.0903 9.83651 12.0442L9.50729 12.2714C10.2374 13.3294 11.0245 14.3474 11.8653 15.3209L12.168 15.0594ZM12.446 14.3666C12.2394 14.6182 12.0399 14.8558 11.8648 15.06L12.1685 15.3203C12.3455 15.1138 12.5469 14.8741 12.7551 14.6204L12.446 14.3666ZM14.1973 12.044C13.6457 12.8416 13.0614 13.6165 12.4459 14.3666L12.7552 14.6203C13.3775 13.8617 13.9684 13.0781 14.5263 12.2716L14.1973 12.044ZM16.3774 7.3544C16.3774 7.82196 16.187 8.48448 15.8109 9.29667C15.4373 10.1034 14.8897 11.0384 14.1971 12.0444L14.5265 12.2712C15.2279 11.2525 15.7882 10.2976 16.1739 9.46476C16.557 8.63738 16.7774 7.91059 16.7774 7.3544H16.3774ZM12.0167 2.70115C14.4384 2.70115 16.3774 4.75795 16.3774 7.3544H16.7774C16.7774 4.56153 14.6831 2.30115 12.0167 2.30115V2.70115ZM16.6675 19.0601L11.9395 20.5309L12.0583 20.9128L16.7863 19.4421L16.6675 19.0601ZM17.2403 19.0878C17.0586 19.0109 16.8552 19.0012 16.6669 19.0603L16.7868 19.4419C16.8846 19.4112 16.9902 19.4163 17.0844 19.4562L17.2403 19.0878ZM21.599 20.9266L17.2401 19.0877L17.0846 19.4563L21.4435 21.2951L21.599 20.9266ZM20.4263 11.0771L21.322 21.1286L21.7204 21.0931L20.8247 11.0416L20.4263 11.0771ZM19.412 10.9259L20.5713 11.2519L20.6796 10.8668L19.5203 10.5408L19.412 10.9259ZM18.7635 10.2612C18.8497 10.588 19.0961 10.8488 19.4187 10.9276L19.5136 10.5391C19.3469 10.4983 19.2027 10.358 19.1502 10.1591L18.7635 10.2612ZM18.9831 9.33516C18.7581 9.58114 18.6766 9.93559 18.7636 10.2617L19.1501 10.1586C19.0968 9.95884 19.149 9.74641 19.2782 9.60519L18.9831 9.33516ZM19.8685 9.08961C19.5503 8.98864 19.2103 9.0869 18.9831 9.33516L19.2782 9.60519C19.4054 9.46625 19.585 9.41931 19.7474 9.47087L19.8685 9.08961ZM21.4869 9.54231L19.8618 9.08763L19.7541 9.47284L21.3791 9.92751L21.4869 9.54231ZM22.146 10.372C22.1114 9.98394 21.8562 9.6456 21.4869 9.5423L21.3791 9.92752C21.5709 9.98116 21.7261 10.1664 21.7476 10.4075L22.146 10.372ZM23.196 22.159L22.146 10.372L21.7476 10.4075L22.7976 22.1945L23.196 22.159ZM22.8568 23.0004C23.0997 22.7982 23.2243 22.4793 23.196 22.1592L22.7976 22.1944C22.8151 22.392 22.7367 22.5799 22.6009 22.693L22.8568 23.0004ZM22.4433 23.1895C22.5968 23.1656 22.7408 23.0996 22.8588 22.9987L22.5989 22.6946C22.5374 22.7472 22.4623 22.7817 22.3818 22.7943L22.4433 23.1895ZM21.9893 23.1341C22.1326 23.1942 22.2898 23.2134 22.4433 23.1895L22.3818 22.7943C22.3014 22.8068 22.219 22.7967 22.1441 22.7653L21.9893 23.1341ZM16.8049 20.9468L21.989 23.134L22.1445 22.7654L16.9604 20.5783L16.8049 20.9468ZM12.3433 22.3857L16.9421 20.9535L16.8231 20.5716L12.2244 22.0038L12.3433 22.3857ZM11.9973 22.4563C12.126 22.4583 12.2535 22.4306 12.3697 22.3754L12.198 22.0141C12.1374 22.0429 12.0708 22.0574 12.0035 22.0564L11.9973 22.4563ZM11.6318 22.3754C11.7478 22.4305 11.8749 22.4582 12.0033 22.4563L11.9975 22.0564C11.9304 22.0573 11.864 22.0428 11.8036 22.0141L11.6318 22.3754ZM7.05948 20.9535L11.6582 22.3857L11.7772 22.0038L7.17842 20.5716L7.05948 20.9535ZM2.01221 23.134L7.19669 20.9468L7.04121 20.5783L1.85673 22.7654L2.01221 23.134ZM1.55767 23.1902C1.71148 23.214 1.86893 23.1945 2.01227 23.134L1.85667 22.7655C1.78171 22.7971 1.69924 22.8073 1.61865 22.7949L1.55767 23.1902ZM1.14137 22.9995C1.25965 23.1005 1.40386 23.1665 1.55768 23.1902L1.61865 22.7949C1.53806 22.7825 1.46272 22.7479 1.4011 22.6953L1.14137 22.9995ZM0.804078 22.1586C0.775341 22.4794 0.899956 22.7989 1.1434 23.0012L1.39907 22.6936C1.2631 22.5806 1.18472 22.3926 1.20248 22.1942L0.804078 22.1586ZM1.85484 10.372L0.804071 22.1586L1.20249 22.1942L2.25326 10.4075L1.85484 10.372ZM2.51209 9.54277C2.14371 9.64658 1.88944 9.98449 1.85485 10.372L2.25326 10.4076C2.27477 10.1666 2.42944 9.98164 2.62058 9.92778L2.51209 9.54277ZM4.13904 9.08799L2.5125 9.54266L2.62018 9.92789L4.24672 9.47322L4.13904 9.08799ZM5.19773 9.78204C5.08444 9.29868 4.62977 8.97216 4.147 9.08594L4.23876 9.47527C4.47791 9.41891 4.73852 9.57567 4.80829 9.87332L5.19773 9.78204ZM4.59529 10.9236C5.05964 10.7729 5.31002 10.2615 5.19774 9.78208L4.80828 9.87328C4.87907 10.1756 4.7146 10.4643 4.47179 10.5431L4.59529 10.9236ZM3.42839 11.2519L4.58768 10.9259L4.4794 10.5408L3.32012 10.8668L3.42839 11.2519ZM2.67771 21.1286L3.57347 11.0771L3.17505 11.0416L2.27929 21.0931L2.67771 21.1286ZM6.76073 19.0877L2.40078 20.9266L2.55622 21.2951L6.91617 19.4563L6.76073 19.0877ZM7.3339 19.0603C7.14496 19.0009 6.94338 19.0107 6.76075 19.0877L6.91615 19.4563C7.0118 19.416 7.11583 19.4111 7.21403 19.4419L7.3339 19.0603ZM12.0588 20.5312L7.33341 19.0601L7.21452 19.4421L11.9399 20.9132L12.0588 20.5312ZM11.8581 20.8638L11.8584 20.8642L12.1402 20.5802L12.1398 20.5799L11.8581 20.8638ZM12.058 4.05227C13.2588 4.05227 14.2618 5.12158 14.2618 6.4791H14.6618C14.6618 4.93479 13.5124 3.65227 12.058 3.65227V4.05227ZM9.85417 6.4791C9.85417 5.12158 10.8572 4.05227 12.058 4.05227V3.65227C10.6036 3.65227 9.45417 4.93479 9.45417 6.4791H9.85417ZM12.058 8.9063C10.8572 8.9063 9.85417 7.83666 9.85417 6.4791H9.45417C9.45417 8.02337 10.6036 9.3063 12.058 9.3063V8.9063ZM14.2618 6.4791C14.2618 7.83666 13.2588 8.9063 12.058 8.9063V9.3063C13.5124 9.3063 14.6618 8.02337 14.6618 6.4791H14.2618ZM12.058 5.15342C11.3621 5.15342 10.8279 5.76385 10.8279 6.4791H11.2279C11.2279 5.95061 11.6157 5.55342 12.058 5.55342V5.15342ZM13.2881 6.4791C13.2881 5.7638 12.7535 5.15342 12.058 5.15342V5.55342C12.5 5.55342 12.8881 5.95065 12.8881 6.4791H13.2881ZM12.058 7.80478C12.7539 7.80478 13.2881 7.19435 13.2881 6.4791H12.8881C12.8881 7.0076 12.5003 7.40478 12.058 7.40478V7.80478ZM10.8279 6.4791C10.8279 7.1944 11.3625 7.80478 12.058 7.80478V7.40478C11.616 7.40478 11.2279 7.00755 11.2279 6.4791H10.8279Z" fill="url(#paint1_linear_41_3059)"/>
</g>
</g>
</g>
<defs>
<linearGradient id="paint0_linear_41_3059" x1="1" y1="12" x2="23" y2="12" gradientUnits="userSpaceOnUse">
<stop stop-color="#3F5EFB"/>
<stop offset="1" stop-color="#FC466B"/>
</linearGradient>
<linearGradient id="paint1_linear_41_3059" x1="1" y1="12" x2="23" y2="12" gradientUnits="userSpaceOnUse">
<stop stop-color="#3F5EFB"/>
<stop offset="1" stop-color="#FC466B"/>
</linearGradient>
<clipPath id="clip0_41_3059">
<rect width="24" height="24" fill="white"/>
</clipPath>
</defs>
</svg>
