<svg width="24" height="24" viewBox="0 0 24 24" fill="none" xmlns="http://www.w3.org/2000/svg">
<g id="Group 65">
<g id="&#230;&#153;&#186;&#232;&#131;&#189;&#228;&#188;&#152;&#229;&#140;&#150; 1">
<path id="Vector" d="M19.9305 12.035C20.0292 11.9052 20.1244 11.7751 20.215 11.6448C21.5204 9.76753 21.8393 8.04091 21.1131 6.78299C20.3868 5.52507 18.7322 4.93799 16.4536 5.12981C16.2954 5.14315 16.1351 5.16054 15.9734 5.18109C15.9103 5.03076 15.8453 4.88324 15.7777 4.73957C14.8046 2.6705 13.4688 1.53101 12.0163 1.53101C10.5638 1.53101 9.22795 2.6705 8.25493 4.73957C8.18734 4.88326 8.1223 5.03076 8.05922 5.18112C7.89748 5.16056 7.73719 5.14317 7.57897 5.12984C5.30061 4.93797 3.64585 5.52511 2.91958 6.78301C2.1933 8.04094 2.51221 9.76755 3.81758 11.6448C3.90821 11.7751 4.00343 11.9052 4.1021 12.035C4.00343 12.1648 3.90824 12.2949 3.81758 12.4253C2.51224 14.3025 2.19333 16.0292 2.91958 17.2871C3.55563 18.3887 4.90375 18.9758 6.75935 18.9758C7.02253 18.9758 7.29601 18.964 7.57897 18.9402C7.73719 18.9269 7.89748 18.9095 8.05922 18.889C8.1223 19.0393 8.18737 19.1868 8.25495 19.3305C9.22797 21.3996 10.5638 22.5391 12.0163 22.5391C13.4689 22.5391 14.8047 21.3996 15.7777 19.3305C15.8453 19.1868 15.9104 19.0393 15.9734 18.889C16.1352 18.9095 16.2954 18.9269 16.4537 18.9402C16.7368 18.9641 17.01 18.9758 17.2733 18.9758C19.1287 18.9758 20.4771 18.3887 21.1131 17.2871C21.8393 16.0292 21.5204 14.3025 20.2151 12.4253C20.1244 12.2949 20.0292 12.1648 19.9305 12.035ZM16.5323 6.06439C18.4004 5.90698 19.7743 6.33991 20.3009 7.25194C20.8274 8.164 20.5155 9.56995 19.4451 11.1094C19.4035 11.1692 19.3606 11.229 19.3171 11.2888C18.6616 10.5482 17.8836 9.82756 17.0116 9.15102C16.8617 8.05758 16.6266 7.0235 16.313 6.08547C16.3865 6.07768 16.4597 6.0705 16.5323 6.06439ZM14.1415 15.7159C13.438 16.1221 12.7253 16.4805 12.0163 16.7868C11.3073 16.4805 10.5946 16.1221 9.8911 15.7159C9.18761 15.3098 8.52086 14.8717 7.90112 14.4109C7.81193 13.6438 7.76595 12.8474 7.76595 12.035C7.76595 11.2227 7.81193 10.4262 7.90115 9.6591C8.52089 9.1983 9.18763 8.76026 9.8911 8.35409C10.5946 7.94793 11.3074 7.58951 12.0163 7.28322C12.7253 7.58951 13.438 7.94793 14.1415 8.35409C14.845 8.76026 15.5118 9.19832 16.1315 9.65912C16.2207 10.4262 16.2667 11.2227 16.2667 12.035C16.2667 12.8474 16.2207 13.6438 16.1315 14.4109C15.5118 14.8717 14.845 15.3098 14.1415 15.7159ZM15.9356 15.6989C15.7916 16.4596 15.6024 17.18 15.3704 17.8444C14.679 17.7131 13.9604 17.5168 13.2296 17.2612C13.692 17.0366 14.1534 16.792 14.6104 16.5281C15.0674 16.2643 15.5099 15.987 15.9356 15.6989ZM10.803 17.2612C10.0722 17.5168 9.3536 17.7131 8.66225 17.8444C8.43025 17.18 8.24102 16.4596 8.09702 15.6989C8.52271 15.9871 8.96518 16.2643 9.42217 16.5281C9.87918 16.792 10.3405 17.0366 10.803 17.2612ZM6.88366 13.5973C6.29685 13.0922 5.76755 12.5681 5.30819 12.035C5.76755 11.5019 6.29687 10.9778 6.88366 10.4727C6.84694 10.9855 6.82809 11.5073 6.82809 12.035C6.82809 12.5627 6.84694 13.0845 6.88366 13.5973ZM8.09702 8.37112C8.24102 7.6104 8.43025 6.88998 8.66225 6.22561C9.3536 6.35687 10.0722 6.5532 10.8029 6.80887C10.3405 7.03345 9.87918 7.27801 9.42217 7.54188C8.96516 7.80573 8.52271 8.08296 8.09702 8.37112ZM13.2297 6.80887C13.9604 6.55322 14.679 6.35689 15.3704 6.22561C15.6024 6.88998 15.7916 7.61043 15.9356 8.37114C15.5099 8.08298 15.0674 7.80573 14.6104 7.54188C14.1534 7.27801 13.6921 7.03343 13.2297 6.80887ZM17.149 10.4727C17.7358 10.9778 18.2651 11.5019 18.7245 12.035C18.2651 12.5681 17.7358 13.0922 17.149 13.5973C17.1857 13.0845 17.2046 12.5627 17.2046 12.035C17.2046 11.5073 17.1857 10.9855 17.149 10.4727ZM9.10357 5.13871C9.90153 3.44198 10.9632 2.46887 12.0163 2.46887C13.0694 2.46887 14.1311 3.44198 14.929 5.13871C14.96 5.20469 14.9904 5.27168 15.0204 5.33922C14.0513 5.53663 13.0382 5.85007 12.0163 6.26698C10.9944 5.85007 9.9813 5.53663 9.01217 5.33922C9.0422 5.27165 9.07256 5.20467 9.10357 5.13871ZM4.58758 11.1093C3.51713 9.56995 3.20522 8.16397 3.73179 7.25192C4.18731 6.46295 5.27634 6.03263 6.77149 6.03263C7.00475 6.03263 7.24816 6.04311 7.50031 6.06436C7.57295 6.07048 7.64615 6.07768 7.71966 6.08545C7.40607 7.02345 7.17096 8.05753 7.02106 9.15095C6.14906 9.82749 5.37105 10.5481 4.7155 11.2888C4.67202 11.229 4.62919 11.1692 4.58758 11.1093ZM7.50028 18.0056C5.63212 18.1629 4.25835 17.7301 3.73176 16.8181C3.2052 15.9061 3.51713 14.5001 4.58755 12.9607C4.62916 12.9008 4.672 12.841 4.71548 12.7813C5.37103 13.5219 6.14904 14.2425 7.02104 14.919C7.17091 16.0125 7.40602 17.0465 7.71964 17.9845C7.64615 17.9923 7.57293 17.9995 7.50028 18.0056ZM14.929 18.9314C14.131 20.6281 13.0694 21.6012 12.0163 21.6012C10.9632 21.6012 9.90153 20.6281 9.10357 18.9314C9.07254 18.8654 9.04215 18.7984 9.01214 18.7308C9.9813 18.5334 10.9944 18.2199 12.0163 17.803C13.0382 18.2199 14.0513 18.5334 15.0205 18.7308C14.9904 18.7984 14.96 18.8654 14.929 18.9314ZM20.3009 16.8181C19.7743 17.7301 18.4007 18.1631 16.5323 18.0056C16.4597 17.9995 16.3865 17.9923 16.313 17.9845C16.6266 17.0465 16.8617 16.0124 17.0116 14.919C17.8836 14.2425 18.6616 13.5218 19.3171 12.7813C19.3606 12.841 19.4034 12.9009 19.4451 12.9607C20.5155 14.5001 20.8274 15.9061 20.3009 16.8181Z" fill="url(#paint0_linear_41_3054)" stroke="url(#paint1_linear_41_3054)" stroke-width="0.6"/>
</g>
</g>
<defs>
<linearGradient id="paint0_linear_41_3054" x1="2.53857" y1="12.035" x2="21.4941" y2="12.035" gradientUnits="userSpaceOnUse">
<stop stop-color="#3F5EFB"/>
<stop offset="1" stop-color="#FC466B"/>
</linearGradient>
<linearGradient id="paint1_linear_41_3054" x1="2.53857" y1="12.035" x2="21.4941" y2="12.035" gradientUnits="userSpaceOnUse">
<stop stop-color="#3F5EFB"/>
<stop offset="1" stop-color="#FC466B"/>
</linearGradient>
</defs>
</svg>
