<svg width="24" height="24" viewBox="0 0 24 24" fill="none" xmlns="http://www.w3.org/2000/svg">
<g id="Group 67">
<g id="AI 1">
<g id="Union">
<path fill-rule="evenodd" clip-rule="evenodd" d="M3.31674 8.385C3.31674 4.14825 7.11474 0.75 11.7617 0.75C16.408 0.75 20.2067 4.14825 20.2067 8.38425C20.2067 8.58316 20.1277 8.77393 19.9871 8.91458C19.8464 9.05523 19.6556 9.13425 19.4567 9.13425C19.2578 9.13425 19.0671 9.05523 18.9264 8.91458C18.7858 8.77393 18.7067 8.58316 18.7067 8.38425C18.7067 5.01525 15.6145 2.24925 11.7617 2.24925C7.90899 2.24925 4.81674 5.016 4.81674 8.38425C4.81647 8.89075 4.88664 9.39483 5.02524 9.882C5.07335 10.0513 5.06034 10.2321 4.98849 10.3927L4.05399 12.4852C5.43699 12.9645 6.19149 14.0198 6.19149 15.5588V18.1733H6.67749C7.47314 18.1733 8.2362 18.4893 8.79881 19.0519C9.36142 19.6145 9.67749 20.3776 9.67749 21.1733V21.75H17.0275C17.2264 21.75 17.4172 21.829 17.5578 21.9697C17.6985 22.1103 17.7775 22.3011 17.7775 22.5C17.7775 22.6989 17.6985 22.8897 17.5578 23.0303C17.4172 23.171 17.2264 23.25 17.0275 23.25H8.92749C8.72857 23.25 8.53781 23.171 8.39716 23.0303C8.2565 22.8897 8.17749 22.6989 8.17749 22.5V21.174C8.17749 20.7762 8.01945 20.3946 7.73815 20.1133C7.45684 19.832 7.07531 19.674 6.67749 19.674H6.19224C5.79441 19.674 5.41288 19.516 5.13158 19.2347C4.85027 18.9534 4.69224 18.5718 4.69224 18.174V15.5595C4.69224 14.478 4.16724 13.929 2.89524 13.7475C2.78028 13.7311 2.67069 13.6883 2.57511 13.6224C2.47953 13.5564 2.40056 13.4692 2.34443 13.3675C2.2883 13.2659 2.25654 13.1526 2.25164 13.0366C2.24675 12.9206 2.26886 12.805 2.31624 12.699L3.51174 10.0223C3.38274 9.489 3.31674 8.94075 3.31674 8.385ZM20.6574 10.7197C20.7981 10.579 20.9888 10.5 21.1877 10.5C21.3867 10.5 21.5774 10.579 21.7181 10.7197C21.8587 10.8603 21.9377 11.0511 21.9377 11.25V19.6875C21.9377 19.8864 21.8587 20.0772 21.7181 20.2178C21.5774 20.3585 21.3867 20.4375 21.1877 20.4375C20.9888 20.4375 20.7981 20.3585 20.6574 20.2178C20.5168 20.0772 20.4377 19.8864 20.4377 19.6875V11.25C20.4377 11.0511 20.5168 10.8603 20.6574 10.7197ZM14.416 10.9733C14.6598 10.3598 15.5193 10.338 15.7945 10.9373L19.3878 18.7598C19.4708 18.9405 19.4787 19.1468 19.4096 19.3333C19.3405 19.5198 19.2002 19.6712 19.0195 19.7543C18.8388 19.8373 18.6325 19.8452 18.446 19.7761C18.2595 19.7071 18.1081 19.5667 18.025 19.386L17.1303 17.4383H13.501C13.4939 17.4383 13.4872 17.4364 13.4804 17.4345C13.4744 17.4328 13.4684 17.4311 13.462 17.4308L12.6978 19.3508C12.6242 19.5357 12.4801 19.6838 12.2974 19.7624C12.1146 19.8411 11.908 19.844 11.7231 19.7704C11.5382 19.6968 11.3902 19.5528 11.3115 19.37C11.2328 19.1872 11.2299 18.9807 11.3035 18.7958L14.416 10.9733ZM15.163 13.155L14.0553 15.9375H16.441L15.163 13.155Z" fill="url(#paint0_linear_41_3073)"/>
<path d="M19.9871 8.91458L19.8456 8.77316L19.8456 8.77316L19.9871 8.91458ZM18.9264 8.91458L18.785 9.056L18.785 9.056L18.9264 8.91458ZM4.81674 8.38425L5.01674 8.38436V8.38425H4.81674ZM5.02524 9.882L5.21762 9.82732L5.2176 9.82727L5.02524 9.882ZM4.98849 10.3927L4.80592 10.3111L4.80587 10.3112L4.98849 10.3927ZM4.05399 12.4852L3.87137 12.4037L3.78244 12.6028L3.9885 12.6742L4.05399 12.4852ZM6.19149 18.1733H5.99149V18.3733H6.19149V18.1733ZM9.67749 21.75H9.47749V21.95H9.67749V21.75ZM17.5578 21.9697L17.4164 22.1111L17.4164 22.1111L17.5578 21.9697ZM17.5578 23.0303L17.4164 22.8889L17.4164 22.8889L17.5578 23.0303ZM5.13158 19.2347L4.99015 19.3761L4.99016 19.3761L5.13158 19.2347ZM2.89524 13.7475L2.92349 13.5495L2.92343 13.5495L2.89524 13.7475ZM2.57511 13.6224L2.46155 13.787L2.46155 13.787L2.57511 13.6224ZM2.34443 13.3675L2.16935 13.4642L2.16935 13.4642L2.34443 13.3675ZM2.25164 13.0366L2.45147 13.0282L2.45147 13.0282L2.25164 13.0366ZM2.31624 12.699L2.49883 12.7806L2.49885 12.7806L2.31624 12.699ZM3.51174 10.0223L3.69435 10.1038L3.72217 10.0415L3.70613 9.97522L3.51174 10.0223ZM20.6574 10.7197L20.516 10.5782L20.516 10.5782L20.6574 10.7197ZM21.7181 10.7197L21.5766 10.8611L21.5766 10.8611L21.7181 10.7197ZM21.7181 20.2178L21.5766 20.0764L21.5766 20.0764L21.7181 20.2178ZM20.6574 20.2178L20.516 20.3593L20.516 20.3593L20.6574 20.2178ZM15.7945 10.9373L15.6128 11.0208L15.6128 11.0208L15.7945 10.9373ZM14.416 10.9733L14.6018 11.0472L14.6019 11.0471L14.416 10.9733ZM19.3878 18.7598L19.206 18.8433L19.206 18.8433L19.3878 18.7598ZM19.4096 19.3333L19.5972 19.4027L19.5972 19.4027L19.4096 19.3333ZM18.446 19.7761L18.5154 19.5886L18.5154 19.5886L18.446 19.7761ZM18.025 19.386L17.8433 19.4695L17.8433 19.4695L18.025 19.386ZM17.1303 17.4383L17.312 17.3548L17.2585 17.2383H17.1303V17.4383ZM13.4804 17.4345L13.5344 17.2419L13.5344 17.2419L13.4804 17.4345ZM13.462 17.4308L13.4731 17.2311L13.3294 17.2231L13.2762 17.3568L13.462 17.4308ZM12.6978 19.3508L12.8836 19.4248L12.8836 19.4247L12.6978 19.3508ZM12.2974 19.7624L12.3764 19.9461L12.3764 19.9461L12.2974 19.7624ZM11.7231 19.7704L11.7971 19.5846L11.7971 19.5846L11.7231 19.7704ZM11.3115 19.37L11.1278 19.4491L11.1278 19.4491L11.3115 19.37ZM11.3035 18.7958L11.4893 18.8698L11.4893 18.8697L11.3035 18.7958ZM14.0553 15.9375L13.8694 15.8636L13.7604 16.1375H14.0553V15.9375ZM15.163 13.155L15.3448 13.0716L15.1499 12.6473L14.9772 13.0811L15.163 13.155ZM16.441 15.9375V16.1375H16.753L16.6228 15.8541L16.441 15.9375ZM11.7617 0.55C7.02436 0.55 3.11674 4.01873 3.11674 8.385H3.51674C3.51674 4.27777 7.20511 0.95 11.7617 0.95V0.55ZM20.4067 8.38425C20.4067 4.0187 16.4983 0.55 11.7617 0.55V0.95C16.3176 0.95 20.0067 4.2778 20.0067 8.38425H20.4067ZM20.1285 9.056C20.3066 8.87784 20.4067 8.6362 20.4067 8.38425H20.0067C20.0067 8.53012 19.9488 8.67001 19.8456 8.77316L20.1285 9.056ZM19.4567 9.33425C19.7087 9.33425 19.9503 9.23416 20.1285 9.056L19.8456 8.77316C19.7425 8.8763 19.6026 8.93425 19.4567 8.93425V9.33425ZM18.785 9.056C18.9631 9.23416 19.2048 9.33425 19.4567 9.33425V8.93425C19.3109 8.93425 19.171 8.8763 19.0678 8.77316L18.785 9.056ZM18.5067 8.38425C18.5067 8.63621 18.6068 8.87784 18.785 9.056L19.0678 8.77316C18.9647 8.67001 18.9067 8.53012 18.9067 8.38425H18.5067ZM11.7617 2.44925C15.5273 2.44925 18.5067 5.14762 18.5067 8.38425H18.9067C18.9067 4.88288 15.7017 2.04925 11.7617 2.04925V2.44925ZM5.01674 8.38425C5.01674 5.14835 7.9962 2.44925 11.7617 2.44925V2.04925C7.82178 2.04925 4.61674 4.88365 4.61674 8.38425H5.01674ZM5.2176 9.82727C5.08408 9.35794 5.01648 8.87231 5.01674 8.38436L4.61674 8.38414C4.61646 8.90919 4.6892 9.43172 4.83287 9.93673L5.2176 9.82727ZM5.17106 10.4744C5.26209 10.2709 5.27857 10.0418 5.21762 9.82732L4.83286 9.93668C4.86813 10.0608 4.85859 10.1933 4.80592 10.3111L5.17106 10.4744ZM4.2366 12.5668L5.1711 10.4743L4.80587 10.3112L3.87137 12.4037L4.2366 12.5668ZM6.39149 15.5588C6.39149 14.756 6.19436 14.0655 5.80517 13.5099C5.41579 12.954 4.84412 12.5474 4.11947 12.2963L3.9885 12.6742C4.64685 12.9024 5.14393 13.263 5.47755 13.7393C5.81136 14.2159 5.99149 14.8225 5.99149 15.5588H6.39149ZM6.39149 18.1733V15.5588H5.99149V18.1733H6.39149ZM6.67749 17.9733H6.19149V18.3733H6.67749V17.9733ZM8.94023 18.9105C8.34011 18.3104 7.52618 17.9733 6.67749 17.9733V18.3733C7.42009 18.3733 8.13228 18.6682 8.65739 19.1934L8.94023 18.9105ZM9.87749 21.1733C9.87749 20.3246 9.54034 19.5106 8.94023 18.9105L8.65739 19.1934C9.18249 19.7185 9.47749 20.4306 9.47749 21.1733H9.87749ZM9.87749 21.75V21.1733H9.47749V21.75H9.87749ZM17.0275 21.55H9.67749V21.95H17.0275V21.55ZM17.6992 21.8282C17.5211 21.6501 17.2794 21.55 17.0275 21.55V21.95C17.1734 21.95 17.3133 22.0079 17.4164 22.1111L17.6992 21.8282ZM17.9775 22.5C17.9775 22.248 17.8774 22.0064 17.6992 21.8282L17.4164 22.1111C17.5195 22.2142 17.5775 22.3541 17.5775 22.5H17.9775ZM17.6992 23.1718C17.8774 22.9936 17.9775 22.752 17.9775 22.5H17.5775C17.5775 22.6459 17.5195 22.7858 17.4164 22.8889L17.6992 23.1718ZM17.0275 23.45C17.2794 23.45 17.5211 23.3499 17.6992 23.1718L17.4164 22.8889C17.3133 22.9921 17.1734 23.05 17.0275 23.05V23.45ZM8.92749 23.45H17.0275V23.05H8.92749V23.45ZM8.25574 23.1718C8.43389 23.3499 8.67553 23.45 8.92749 23.45V23.05C8.78162 23.05 8.64172 22.9921 8.53858 22.8889L8.25574 23.1718ZM7.97749 22.5C7.97749 22.752 8.07758 22.9936 8.25574 23.1718L8.53858 22.8889C8.43543 22.7858 8.37749 22.6459 8.37749 22.5H7.97749ZM7.97749 21.174V22.5H8.37749V21.174H7.97749ZM7.59673 20.2548C7.84052 20.4986 7.97749 20.8292 7.97749 21.174H8.37749C8.37749 20.7231 8.19838 20.2907 7.87957 19.9719L7.59673 20.2548ZM6.67749 19.874C7.02227 19.874 7.35293 20.011 7.59673 20.2548L7.87957 19.9719C7.56076 19.6531 7.12835 19.474 6.67749 19.474V19.874ZM6.19224 19.874H6.67749V19.474H6.19224V19.874ZM4.99016 19.3761C5.30897 19.6949 5.74137 19.874 6.19224 19.874V19.474C5.84745 19.474 5.51679 19.337 5.273 19.0932L4.99016 19.3761ZM4.49224 18.174C4.49224 18.6249 4.67134 19.0573 4.99015 19.3761L5.273 19.0932C5.0292 18.8494 4.89224 18.5188 4.89224 18.174H4.49224ZM4.49224 15.5595V18.174H4.89224V15.5595H4.49224ZM2.86698 13.9455C3.48353 14.0335 3.88213 14.2061 4.12814 14.4562C4.36944 14.7016 4.49224 15.0509 4.49224 15.5595H4.89224C4.89224 14.9866 4.75253 14.5207 4.41333 14.1758C4.07884 13.8357 3.57894 13.643 2.92349 13.5495L2.86698 13.9455ZM2.46155 13.787C2.58262 13.8705 2.72143 13.9248 2.86704 13.9455L2.92343 13.5495C2.83913 13.5375 2.75877 13.5061 2.68868 13.4577L2.46155 13.787ZM2.16935 13.4642C2.24045 13.593 2.34048 13.7035 2.46155 13.787L2.68868 13.4577C2.61858 13.4094 2.56067 13.3454 2.51951 13.2709L2.16935 13.4642ZM2.05182 13.045C2.05802 13.192 2.09825 13.3355 2.16935 13.4642L2.51951 13.2709C2.47835 13.1963 2.45505 13.1132 2.45147 13.0282L2.05182 13.045ZM2.13364 12.6174C2.07363 12.7517 2.04562 12.8981 2.05182 13.045L2.45147 13.0282C2.44788 12.9431 2.46409 12.8583 2.49883 12.7806L2.13364 12.6174ZM3.32912 9.94069L2.13362 12.6174L2.49885 12.7806L3.69435 10.1038L3.32912 9.94069ZM3.11674 8.385C3.11674 8.95664 3.18463 9.52068 3.31734 10.0693L3.70613 9.97522C3.58084 9.45732 3.51674 8.92486 3.51674 8.385H3.11674ZM21.1877 10.3C20.9358 10.3 20.6941 10.4001 20.516 10.5782L20.7988 10.8611C20.902 10.7579 21.0419 10.7 21.1877 10.7V10.3ZM21.8595 10.5782C21.6813 10.4001 21.4397 10.3 21.1877 10.3V10.7C21.3336 10.7 21.4735 10.7579 21.5766 10.8611L21.8595 10.5782ZM22.1377 11.25C22.1377 10.998 22.0377 10.7564 21.8595 10.5782L21.5766 10.8611C21.6798 10.9642 21.7377 11.1041 21.7377 11.25H22.1377ZM22.1377 19.6875V11.25H21.7377V19.6875H22.1377ZM21.8595 20.3593C22.0377 20.1811 22.1377 19.9395 22.1377 19.6875H21.7377C21.7377 19.8334 21.6798 19.9733 21.5766 20.0764L21.8595 20.3593ZM21.1877 20.6375C21.4397 20.6375 21.6813 20.5374 21.8595 20.3593L21.5766 20.0764C21.4735 20.1796 21.3336 20.2375 21.1877 20.2375V20.6375ZM20.516 20.3593C20.6941 20.5374 20.9358 20.6375 21.1877 20.6375V20.2375C21.0419 20.2375 20.902 20.1796 20.7988 20.0764L20.516 20.3593ZM20.2377 19.6875C20.2377 19.9395 20.3378 20.1811 20.516 20.3593L20.7988 20.0764C20.6957 19.9733 20.6377 19.8334 20.6377 19.6875H20.2377ZM20.2377 11.25V19.6875H20.6377V11.25H20.2377ZM20.516 10.5782C20.3378 10.7564 20.2377 10.998 20.2377 11.25H20.6377C20.6377 11.1041 20.6957 10.9642 20.7988 10.8611L20.516 10.5782ZM15.9763 10.8538C15.6277 10.0949 14.539 10.1222 14.2301 10.8994L14.6019 11.0471C14.7806 10.5974 15.4108 10.5811 15.6128 11.0208L15.9763 10.8538ZM19.5695 18.6763L15.9762 10.8538L15.6128 11.0208L19.206 18.8433L19.5695 18.6763ZM19.5972 19.4027C19.6846 19.1665 19.6747 18.9052 19.5695 18.6763L19.206 18.8433C19.2669 18.9758 19.2727 19.1271 19.222 19.2639L19.5972 19.4027ZM19.103 19.936C19.3319 19.8308 19.5097 19.639 19.5972 19.4027L19.222 19.2639C19.1714 19.4006 19.0685 19.5117 18.936 19.5726L19.103 19.936ZM18.3765 19.9637C18.6128 20.0512 18.8741 20.0412 19.103 19.936L18.936 19.5726C18.8035 19.6335 18.6522 19.6392 18.5154 19.5886L18.3765 19.9637ZM17.8433 19.4695C17.9485 19.6985 18.1403 19.8762 18.3765 19.9637L18.5154 19.5886C18.3787 19.5379 18.2676 19.435 18.2067 19.3025L17.8433 19.4695ZM16.9485 17.5218L17.8433 19.4695L18.2067 19.3025L17.312 17.3548L16.9485 17.5218ZM13.501 17.6383H17.1303V17.2383H13.501V17.6383ZM13.4265 17.6271C13.429 17.6278 13.4619 17.6383 13.501 17.6383V17.2383C13.515 17.2383 13.5257 17.2401 13.5311 17.2413C13.5356 17.2422 13.5389 17.2432 13.5344 17.2419L13.4265 17.6271ZM13.4509 17.6305C13.4401 17.6299 13.432 17.6283 13.4281 17.6274C13.4249 17.6267 13.4226 17.626 13.4265 17.6271L13.5344 17.2419C13.5317 17.2412 13.5049 17.2329 13.4731 17.2311L13.4509 17.6305ZM12.8836 19.4247L13.6478 17.5047L13.2762 17.3568L12.5119 19.2768L12.8836 19.4247ZM12.3764 19.9461C12.6079 19.8465 12.7904 19.6589 12.8836 19.4248L12.5119 19.2768C12.458 19.4124 12.3523 19.521 12.2183 19.5788L12.3764 19.9461ZM11.6492 19.9562C11.8833 20.0494 12.1449 20.0458 12.3764 19.9461L12.2183 19.5788C12.0842 19.6365 11.9327 19.6386 11.7971 19.5846L11.6492 19.9562ZM11.1278 19.4491C11.2274 19.6806 11.415 19.863 11.6492 19.9562L11.7971 19.5846C11.6615 19.5306 11.5529 19.425 11.4952 19.2909L11.1278 19.4491ZM11.1177 18.7218C11.0245 18.956 11.0281 19.2176 11.1278 19.4491L11.4952 19.2909C11.4374 19.1569 11.4353 19.0054 11.4893 18.8698L11.1177 18.7218ZM14.2302 10.8993L11.1177 18.7218L11.4893 18.8697L14.6018 11.0472L14.2302 10.8993ZM14.2411 16.0115L15.3488 13.229L14.9772 13.0811L13.8694 15.8636L14.2411 16.0115ZM16.441 15.7375H14.0553V16.1375H16.441V15.7375ZM14.9813 13.2385L16.2593 16.021L16.6228 15.8541L15.3448 13.0716L14.9813 13.2385Z" fill="url(#paint1_linear_41_3073)"/>
</g>
</g>
</g>
<defs>
<linearGradient id="paint0_linear_41_3073" x1="2.25098" y1="12" x2="21.9377" y2="12" gradientUnits="userSpaceOnUse">
<stop stop-color="#3F5EFB"/>
<stop offset="1" stop-color="#FC466B"/>
</linearGradient>
<linearGradient id="paint1_linear_41_3073" x1="2.25098" y1="12" x2="21.9377" y2="12" gradientUnits="userSpaceOnUse">
<stop stop-color="#3F5EFB"/>
<stop offset="1" stop-color="#FC466B"/>
</linearGradient>
</defs>
</svg>
