<svg width="40" height="40" viewBox="0 0 40 40" fill="none" xmlns="http://www.w3.org/2000/svg">
<g id="Group 57">
<g id="&#229;&#143;&#145;&#233;&#128;&#129;-&#229;&#174;&#158;&#232;&#137;&#178; 1">
<path id="Vector" d="M33.8002 7.91191C33.1322 7.31591 32.1962 7.14391 31.3562 7.45991L6.94418 16.6839C6.03618 17.0279 5.44018 17.8439 5.39618 18.8159C5.35218 19.7879 5.86418 20.6559 6.74018 21.0839L10.5522 22.9479C10.6282 22.9839 10.6962 23.0359 10.7562 23.0919C11.1522 24.1119 12.7162 28.1079 13.4122 29.5519C13.7642 30.2879 14.4122 30.8039 15.0122 31.0279C14.9722 31.0239 14.9282 31.0159 14.8802 31.0079C14.9962 31.0519 15.1162 31.0879 15.2402 31.1119C16.0322 31.2719 16.8442 31.0279 17.4122 30.4559L18.8322 29.0359C19.0842 28.7839 19.4802 28.7279 19.7922 28.9039L25.9082 32.3759C26.2762 32.5839 26.6842 32.6919 27.0922 32.6919C27.4122 32.6919 27.7362 32.6279 28.0402 32.4959C28.7362 32.1959 29.2402 31.6039 29.4242 30.8679L34.5322 10.2759C34.7522 9.41191 34.4682 8.50391 33.8002 7.91191ZM12.2762 22.5999L25.3642 15.1119L17.9762 22.6799C17.8562 22.8039 17.7682 22.9439 17.7082 23.1079C17.7042 23.1159 17.7042 23.1199 17.7002 23.1279C17.6842 23.1759 16.2242 27.4839 15.3602 29.4319C15.1842 29.3159 14.9722 29.1279 14.8482 28.8679C14.2082 27.5239 12.7162 23.7199 12.2762 22.5999Z" fill="url(#paint0_linear_41_2949)"/>
</g>
</g>
<defs>
<linearGradient id="paint0_linear_41_2949" x1="5.39355" y1="19.9981" x2="34.6055" y2="19.9981" gradientUnits="userSpaceOnUse">
<stop stop-color="#3F5EFB"/>
<stop offset="1" stop-color="#FC466B"/>
</linearGradient>
</defs>
</svg>
