<svg width="14" height="14" viewBox="0 0 14 14" fill="none" xmlns="http://www.w3.org/2000/svg">
<g id="&#232;&#175;&#173;&#232;&#168;&#128;-&#231;&#169;&#186; 1" clip-path="url(#clip0_41_2683)">
<path id="Vector" d="M7 0.5H6.99375H6.98438C3.4 0.509375 0.5 3.41562 0.5 7C0.5 10.5844 3.4 13.4906 6.98438 13.5H7C10.5906 13.5 13.5 10.5906 13.5 7C13.5 3.40937 10.5906 0.5 7 0.5ZM7.25937 4.39063C7.95 4.37188 8.61875 4.28125 9.26562 4.125C9.45937 4.89063 9.58125 5.775 9.6 6.74375H7.25937V4.39063ZM7.25937 3.86875V1.0625C7.95937 1.25625 8.67188 2.19063 9.12188 3.625C8.52188 3.76875 7.9 3.85 7.25937 3.86875ZM6.74063 1.05625V3.87188C6.09375 3.85313 5.46562 3.76875 4.8625 3.62188C5.31875 2.17812 6.03438 1.2375 6.74063 1.05625ZM6.74063 4.39063V6.74063H4.38438C4.40313 5.77188 4.525 4.8875 4.71875 4.12188C5.36875 4.27813 6.04688 4.37188 6.74063 4.39063ZM3.85937 6.74063H1.02813C1.08438 5.40312 1.58438 4.17813 2.38125 3.20938C2.95938 3.52813 3.575 3.79063 4.21875 3.98438C4.00625 4.8125 3.88125 5.74688 3.85937 6.74063ZM3.85937 7.25937C3.87812 8.25 4.00313 9.1875 4.21563 10.0156C3.5782 10.2104 2.96247 10.47 2.37813 10.7906C1.58125 9.82187 1.08438 8.59688 1.025 7.25937H3.85937ZM4.38438 7.25937H6.74063V9.60625C6.04688 9.625 5.36875 9.71875 4.71875 9.87813C4.525 9.1125 4.40313 8.22812 4.38438 7.25937ZM6.74063 10.1281V12.9469C6.03438 12.7625 5.31875 11.825 4.8625 10.3813C5.46562 10.2313 6.09375 10.1469 6.74063 10.1281ZM7.25937 12.9375V10.125C7.9 10.1437 8.52187 10.2281 9.125 10.3719C8.67187 11.8094 7.9625 12.7438 7.25937 12.9375ZM7.25937 9.60625V7.25937H9.6C9.58125 8.225 9.45937 9.10937 9.26562 9.875C8.61875 9.71875 7.95 9.625 7.25937 9.60625ZM10.1219 7.25937H12.9719C12.9156 8.59688 12.4156 9.81875 11.6188 10.7906C11.0344 10.4687 10.4156 10.2063 9.76563 10.0094C9.97813 9.18125 10.1031 8.25 10.1219 7.25937ZM10.1219 6.74063C10.1031 5.75 9.97813 4.81563 9.76875 3.9875C10.4188 3.79063 11.0375 3.52813 11.6188 3.20938C12.4156 4.17813 12.9156 5.40313 12.9719 6.74375H10.1219V6.74063ZM11.2625 2.80938C10.7438 3.08438 10.2 3.3125 9.62813 3.48438C9.325 2.50625 8.89687 1.70938 8.39375 1.18438C9.5 1.45 10.4875 2.025 11.2625 2.80938ZM5.5875 1.19062C5.08437 1.7125 4.65937 2.50938 4.35937 3.48125C3.79375 3.30938 3.25313 3.08438 2.74063 2.80938C3.50625 2.02813 4.4875 1.45625 5.5875 1.19062ZM2.7375 11.1875C3.25 10.9125 3.79375 10.6875 4.35625 10.5156C4.65938 11.4906 5.08437 12.2844 5.5875 12.8094C4.4875 12.5438 3.50625 11.9719 2.7375 11.1875ZM8.39375 12.8156C8.9 12.2906 9.325 11.4938 9.63125 10.5125C10.2031 10.6844 10.7469 10.9125 11.2656 11.1875C10.4906 11.975 9.5 12.55 8.39375 12.8156Z" fill="black" stroke="black" stroke-width="0.2"/>
</g>
<defs>
<clipPath id="clip0_41_2683">
<rect width="14" height="14" fill="white"/>
</clipPath>
</defs>
</svg>
