<svg width="24" height="24" viewBox="0 0 24 24" fill="none" xmlns="http://www.w3.org/2000/svg">
<g id="Group 45">
<g id="Group 31">
<mask id="mask0_41_2725" style="mask-type:alpha" maskUnits="userSpaceOnUse" x="0" y="0" width="24" height="24">
<rect id="Rectangle 28" width="24" height="24" fill="#D9D9D9"/>
</mask>
<g mask="url(#mask0_41_2725)">
<path id="Vector" d="M17.064 0.75C17.9812 0.75 18.8608 1.14509 19.5094 1.84835C20.158 2.55161 20.5223 3.50544 20.5223 4.5V19C20.5223 19.9946 20.158 20.9484 19.5094 21.6517C18.8608 22.3549 17.9812 22.75 17.064 22.75H6.45836C6.0042 22.75 5.55449 22.653 5.1349 22.4645C4.71531 22.2761 4.33407 21.9999 4.01293 21.6517C3.36436 20.9484 3 19.9946 3 19V4.5C3 4.00754 3.08945 3.51991 3.26325 3.06494C3.43705 2.60997 3.69179 2.19657 4.01293 1.84835C4.6615 1.14509 5.54114 0.75 6.45836 0.75H17.064ZM17.064 2.25H13.3751V9.2935C13.3751 9.61086 13.2638 9.91636 13.0638 10.148C12.8638 10.3797 12.5899 10.5202 12.2979 10.541L12.2223 10.5435C11.9167 10.5436 11.6237 10.4121 11.4075 10.178L9.9144 8.5605L8.42685 10.1755C8.22087 10.3992 7.94438 10.5299 7.65305 10.5414C7.36173 10.553 7.0772 10.4443 6.85676 10.2375L6.79635 10.1765C6.68917 10.0604 6.60416 9.9225 6.54616 9.77073C6.48816 9.61896 6.45833 9.45628 6.45836 9.292V2.25C6.18586 2.25 5.91603 2.3082 5.66428 2.42127C5.41253 2.53434 5.18378 2.70008 4.9911 2.90901C4.79842 3.11794 4.64557 3.36598 4.54129 3.63896C4.43701 3.91195 4.38334 4.20453 4.38334 4.5V19C4.38334 19.5967 4.60196 20.169 4.9911 20.591C5.38024 21.0129 5.90803 21.25 6.45836 21.25H17.064C17.6143 21.25 18.1421 21.0129 18.5312 20.591C18.9204 20.169 19.139 19.5967 19.139 19V4.5C19.139 3.90326 18.9204 3.33097 18.5312 2.90901C18.1421 2.48705 17.6143 2.25 17.064 2.25ZM11.9917 2.25H7.8417V8.688L9.13051 7.2915L9.20706 7.22C9.42881 7.0332 9.70582 6.94059 9.98608 6.95956C10.2663 6.97852 10.5306 7.10776 10.7292 7.323L11.9917 8.69V2.25Z" fill="url(#paint0_linear_41_2725)" stroke="url(#paint1_linear_41_2725)" stroke-width="0.4"/>
</g>
</g>
</g>
<defs>
<linearGradient id="paint0_linear_41_2725" x1="3" y1="11.75" x2="20.5223" y2="11.75" gradientUnits="userSpaceOnUse">
<stop stop-color="#3F5EFB"/>
<stop offset="1" stop-color="#FC466B"/>
</linearGradient>
<linearGradient id="paint1_linear_41_2725" x1="3" y1="11.75" x2="20.5223" y2="11.75" gradientUnits="userSpaceOnUse">
<stop stop-color="#3F5EFB"/>
<stop offset="1" stop-color="#FC466B"/>
</linearGradient>
</defs>
</svg>
