<svg width="24" height="24" viewBox="0 0 24 24" fill="none" xmlns="http://www.w3.org/2000/svg">
<g id="Group 46">
<g id="&#230;&#150;&#135;&#228;&#187;&#182;&#229;&#164;&#185; 1">
<path id="Vector" d="M19.774 4.86408H10.5445C10.5031 3.67281 9.52107 2.71643 8.31991 2.71643H4.22595C2.99855 2.71643 2 3.71498 2 4.94238V19.0811C2 20.3085 2.99855 21.307 4.22595 21.307H19.774C21.0014 21.307 22 20.3085 22 19.0811V7.09003C22 5.86263 21.0014 4.86408 19.774 4.86408ZM4.22595 4.12583H8.31991C8.77016 4.12583 9.13647 4.49214 9.13647 4.94238V5.56878C9.13647 5.95797 9.45197 6.27348 9.84116 6.27348H19.774C20.2243 6.27348 20.5906 6.63979 20.5906 7.09003V7.72762H3.4094V4.94238C3.4094 4.49214 3.7757 4.12583 4.22595 4.12583ZM19.774 19.8976H4.22595C3.7757 19.8976 3.4094 19.5313 3.4094 19.0811V9.13701H20.5906V19.0811C20.5906 19.5313 20.2243 19.8976 19.774 19.8976Z" fill="url(#paint0_linear_41_2731)" stroke="url(#paint1_linear_41_2731)" stroke-width="0.4"/>
</g>
</g>
<defs>
<linearGradient id="paint0_linear_41_2731" x1="2" y1="12.0117" x2="22" y2="12.0117" gradientUnits="userSpaceOnUse">
<stop stop-color="#3F5EFB"/>
<stop offset="1" stop-color="#FC466B"/>
</linearGradient>
<linearGradient id="paint1_linear_41_2731" x1="2" y1="12.0117" x2="22" y2="12.0117" gradientUnits="userSpaceOnUse">
<stop stop-color="#3F5EFB"/>
<stop offset="1" stop-color="#FC466B"/>
</linearGradient>
</defs>
</svg>
