<svg width="24" height="24" viewBox="0 0 24 24" fill="none" xmlns="http://www.w3.org/2000/svg">
<g id="Group 70">
<g id="&#231;&#191;&#187;&#232;&#175;&#145; 1">
<g id="Union">
<path fill-rule="evenodd" clip-rule="evenodd" d="M4.02575 19.5867H10.1816V21.0921H4.02575C2.35636 21.0921 1 19.7357 1 18.0664V5.93353C1 4.26417 2.35636 2.90778 4.02575 2.90778H10.1816V4.41322H4.02575C3.19105 4.41322 2.50541 5.09886 2.50541 5.93353V18.0664C2.50541 18.901 3.19105 19.5867 4.02575 19.5867ZM19.9743 19.5867H18.8862V21.0921H19.9743C21.6436 21.0921 23 19.7357 23 18.0664H21.4946C21.4946 18.901 20.8089 19.5867 19.9743 19.5867ZM17.3659 21.107V19.5867H13.9228V21.107H17.3659ZM21.4946 12.7601V16.546L23 16.546V12.7601H21.4946ZM21.4946 7.45386V11.2398H23V7.45386H21.4946ZM19.9743 4.41325C20.8089 4.41325 21.4946 5.09888 21.4946 5.93355H23C23 4.26419 21.6436 2.90781 19.9743 2.90781H18.8862V4.41325H19.9743ZM13.9228 4.41322H17.3659V2.90778H13.9228V4.41322ZM12.9241 1.38745H11.4038V22.6124H12.9241V1.38745ZM7.6179 7.94587H6.29135L3.57861 16.0543H4.81576L5.47156 14.0272H8.45262L9.09352 16.0692H10.3306L7.6179 7.94587ZM8.09488 12.9391H5.81438L6.93228 9.37675H6.97697L8.09488 12.9391ZM17.7385 7.94587H14.4892H14.4743V16.0543H17.7385C18.4987 16.0543 19.0949 15.8903 19.5122 15.5773C19.9892 15.1898 20.2426 14.5936 20.2426 13.7738C20.2426 13.2223 20.1233 12.7751 19.8998 12.4621C19.6613 12.1342 19.3036 11.9255 18.8415 11.8212C19.1843 11.6871 19.4675 11.4486 19.6613 11.1505C19.8401 10.8226 19.9445 10.4499 19.9445 9.98787C19.9445 9.37675 19.7656 8.8849 19.393 8.52719C19.0055 8.13963 18.4391 7.94587 17.7385 7.94587ZM15.6518 11.3591V9.03393L17.4553 9.04885C17.9323 9.04885 18.2602 9.13828 18.4838 9.31714C18.6925 9.4811 18.7968 9.76431 18.7968 10.1518C18.7968 10.5692 18.6775 10.8822 18.4838 11.076C18.2751 11.2548 17.9174 11.3591 17.4255 11.3591H15.6518ZM15.6518 14.9662V12.4472L17.6044 12.4323C18.126 12.4323 18.4987 12.5367 18.7372 12.7453C18.9607 12.954 19.08 13.2819 19.08 13.744C19.08 14.206 18.916 14.519 18.603 14.7277C18.3645 14.8917 18.0068 14.9662 17.5746 14.9662H15.6518Z" fill="url(#paint0_linear_41_3127)"/>
<path d="M10.1816 19.5867H10.3846V19.3836H10.1816V19.5867ZM10.1816 21.0921V21.2952H10.3846V21.0921H10.1816ZM10.1816 2.90778H10.3846V2.70473H10.1816V2.90778ZM10.1816 4.41322V4.61628H10.3846V4.41322H10.1816ZM18.8862 19.5867V19.3836H18.6831V19.5867H18.8862ZM18.8862 21.0921H18.6831V21.2952H18.8862V21.0921ZM23 18.0664H23.2031V17.8633H23V18.0664ZM21.4946 18.0664V17.8633H21.2915V18.0664H21.4946ZM17.3659 19.5867H17.5689V19.3836H17.3659V19.5867ZM17.3659 21.107V21.3101H17.5689V21.107H17.3659ZM13.9228 19.5867V19.3836H13.7197V19.5867H13.9228ZM13.9228 21.107H13.7197V21.3101H13.9228V21.107ZM21.4946 16.546H21.2915V16.7491L21.4946 16.7491L21.4946 16.546ZM21.4946 12.7601V12.5571H21.2915V12.7601H21.4946ZM23 16.546L23 16.7491L23.2031 16.7491V16.546H23ZM23 12.7601H23.2031V12.5571H23V12.7601ZM21.4946 11.2398H21.2915V11.4428H21.4946V11.2398ZM21.4946 7.45386V7.25081H21.2915V7.45386H21.4946ZM23 11.2398V11.4428H23.2031V11.2398H23ZM23 7.45386H23.2031V7.25081H23V7.45386ZM21.4946 5.93355H21.2915V6.13661H21.4946V5.93355ZM23 5.93355V6.13661H23.2031V5.93355H23ZM18.8862 2.90781V2.70475H18.6831V2.90781H18.8862ZM18.8862 4.41325H18.6831V4.6163H18.8862V4.41325ZM17.3659 4.41322V4.61628H17.5689V4.41322H17.3659ZM13.9228 4.41322H13.7197V4.61628H13.9228V4.41322ZM17.3659 2.90778H17.5689V2.70473H17.3659V2.90778ZM13.9228 2.90778V2.70473H13.7197V2.90778H13.9228ZM11.4038 1.38745V1.1844H11.2007V1.38745H11.4038ZM12.9241 1.38745H13.1272V1.1844H12.9241V1.38745ZM11.4038 22.6124H11.2007V22.8154H11.4038V22.6124ZM12.9241 22.6124V22.8154H13.1272V22.6124H12.9241ZM6.29135 7.94587V7.74281H6.14517L6.09879 7.88144L6.29135 7.94587ZM7.6179 7.94587L7.8105 7.88155L7.76417 7.74281H7.6179V7.94587ZM3.57861 16.0543L3.38605 15.9899L3.29656 16.2574H3.57861V16.0543ZM4.81576 16.0543V16.2574H4.96348L5.00895 16.1168L4.81576 16.0543ZM5.47156 14.0272V13.8241H5.32383L5.27836 13.9647L5.47156 14.0272ZM8.45262 14.0272L8.64635 13.9664L8.60171 13.8241H8.45262V14.0272ZM9.09352 16.0692L8.89978 16.13L8.94443 16.2722H9.09352V16.0692ZM10.3306 16.0692V16.2722H10.6125L10.5232 16.0049L10.3306 16.0692ZM5.81438 12.9391L5.62064 12.8783L5.53784 13.1421H5.81438V12.9391ZM8.09488 12.9391V13.1421H8.37141L8.28861 12.8783L8.09488 12.9391ZM6.93228 9.37675V9.1737H6.78319L6.73855 9.31595L6.93228 9.37675ZM6.97697 9.37675L7.17071 9.31595L7.12607 9.1737H6.97697V9.37675ZM14.4743 7.94587V7.74281H14.2712V7.94587H14.4743ZM14.4743 16.0543H14.2712V16.2573H14.4743V16.0543ZM19.5122 15.5773L19.6342 15.7399L19.6403 15.7349L19.5122 15.5773ZM19.8998 12.4621L20.065 12.3441L20.064 12.3427L19.8998 12.4621ZM18.8415 11.8212L18.7675 11.6321L18.1508 11.8734L18.7968 12.0193L18.8415 11.8212ZM19.6613 11.1505L19.8315 11.2611L19.8358 11.2546L19.8395 11.2477L19.6613 11.1505ZM19.393 8.52719L19.2494 8.6708L19.2524 8.67366L19.393 8.52719ZM15.6518 9.03393L15.6535 8.83089L15.4487 8.82919V9.03393H15.6518ZM15.6518 11.3591H15.4487V11.5622H15.6518V11.3591ZM17.4553 9.04885L17.4536 9.25191H17.4553V9.04885ZM18.4838 9.31714L18.3569 9.4757L18.3583 9.47682L18.4838 9.31714ZM18.4838 11.076L18.6159 11.2301L18.6218 11.225L18.6273 11.2195L18.4838 11.076ZM15.6518 12.4472L15.6502 12.2442L15.4487 12.2457V12.4472H15.6518ZM15.6518 14.9662H15.4487V15.1693H15.6518V14.9662ZM17.6044 12.4323V12.2293L17.6028 12.2293L17.6044 12.4323ZM18.7372 12.7453L18.8758 12.5968L18.8709 12.5925L18.7372 12.7453ZM18.603 14.7277L18.4904 14.5587L18.488 14.5604L18.603 14.7277ZM10.1816 19.3836H4.02575V19.7897H10.1816V19.3836ZM10.3846 21.0921V19.5867H9.9785V21.0921H10.3846ZM4.02575 21.2952H10.1816V20.889H4.02575V21.2952ZM0.796946 18.0664C0.796946 19.8479 2.24421 21.2952 4.02575 21.2952V20.889C2.4685 20.889 1.20305 19.6236 1.20305 18.0664H0.796946ZM0.796946 5.93353V18.0664H1.20305V5.93353H0.796946ZM4.02575 2.70473C2.24421 2.70473 0.796946 4.15202 0.796946 5.93353H1.20305C1.20305 4.37631 2.4685 3.11084 4.02575 3.11084V2.70473ZM10.1816 2.70473H4.02575V3.11084H10.1816V2.70473ZM10.3846 4.41322V2.90778H9.9785V4.41322H10.3846ZM4.02575 4.61628H10.1816V4.21017H4.02575V4.61628ZM2.70847 5.93353C2.70847 5.21101 3.30319 4.61628 4.02575 4.61628V4.21017C3.07891 4.21017 2.30236 4.98671 2.30236 5.93353H2.70847ZM2.70847 18.0664V5.93353H2.30236V18.0664H2.70847ZM4.02575 19.3836C3.30319 19.3836 2.70847 18.7889 2.70847 18.0664H2.30236C2.30236 19.0132 3.07891 19.7897 4.02575 19.7897V19.3836ZM18.8862 19.7897H19.9743V19.3836H18.8862V19.7897ZM19.0892 21.0921V19.5867H18.6831V21.0921H19.0892ZM19.9743 20.889H18.8862V21.2952H19.9743V20.889ZM22.7969 18.0664C22.7969 19.6236 21.5315 20.889 19.9743 20.889V21.2952C21.7558 21.2952 23.2031 19.8479 23.2031 18.0664H22.7969ZM21.4946 18.2694H23V17.8633H21.4946V18.2694ZM19.9743 19.7897C20.9211 19.7897 21.6976 19.0132 21.6976 18.0664H21.2915C21.2915 18.7889 20.6968 19.3836 19.9743 19.3836V19.7897ZM17.1628 19.5867V21.107H17.5689V19.5867H17.1628ZM13.9228 19.7897H17.3659V19.3836H13.9228V19.7897ZM14.1258 21.107V19.5867H13.7197V21.107H14.1258ZM17.3659 20.9039H13.9228V21.3101H17.3659V20.9039ZM21.6976 16.546V12.7601H21.2915V16.546H21.6976ZM23 16.343L21.4946 16.343L21.4946 16.7491L23 16.7491L23 16.343ZM22.7969 12.7601V16.546H23.2031V12.7601H22.7969ZM21.4946 12.9632H23V12.5571H21.4946V12.9632ZM21.6976 11.2398V7.45386H21.2915V11.2398H21.6976ZM23 11.0367H21.4946V11.4428H23V11.0367ZM22.7969 7.45386V11.2398H23.2031V7.45386H22.7969ZM21.4946 7.65692H23V7.25081H21.4946V7.65692ZM21.6976 5.93355C21.6976 4.98674 20.9211 4.21019 19.9743 4.21019V4.6163C20.6968 4.6163 21.2915 5.21103 21.2915 5.93355H21.6976ZM23 5.7305H21.4946V6.13661H23V5.7305ZM19.9743 3.11086C21.5315 3.11086 22.7969 4.37633 22.7969 5.93355H23.2031C23.2031 4.15205 21.7558 2.70475 19.9743 2.70475V3.11086ZM18.8862 3.11086H19.9743V2.70475H18.8862V3.11086ZM19.0892 4.41325V2.90781H18.6831V4.41325H19.0892ZM19.9743 4.21019H18.8862V4.6163H19.9743V4.21019ZM17.3659 4.21017H13.9228V4.61628H17.3659V4.21017ZM17.1628 2.90778V4.41322H17.5689V2.90778H17.1628ZM13.9228 3.11084H17.3659V2.70473H13.9228V3.11084ZM14.1258 4.41322V2.90778H13.7197V4.41322H14.1258ZM11.4038 1.5905H12.9241V1.1844H11.4038V1.5905ZM11.6068 22.6124V1.38745H11.2007V22.6124H11.6068ZM12.9241 22.4093H11.4038V22.8154H12.9241V22.4093ZM12.7211 1.38745V22.6124H13.1272V1.38745H12.7211ZM6.29135 8.14892H7.6179V7.74281H6.29135V8.14892ZM3.77118 16.1187L6.48392 8.01029L6.09879 7.88144L3.38605 15.9899L3.77118 16.1187ZM4.81576 15.8512H3.57861V16.2574H4.81576V15.8512ZM5.27836 13.9647L4.62256 15.9918L5.00895 16.1168L5.66475 14.0897L5.27836 13.9647ZM8.45262 13.8241H5.47156V14.2303H8.45262V13.8241ZM9.28726 16.0084L8.64635 13.9664L8.25888 14.088L8.89978 16.13L9.28726 16.0084ZM10.3306 15.8661H9.09352V16.2722H10.3306V15.8661ZM7.4253 8.01018L10.138 16.1335L10.5232 16.0049L7.8105 7.88155L7.4253 8.01018ZM5.81438 13.1421H8.09488V12.736H5.81438V13.1421ZM6.73855 9.31595L5.62064 12.8783L6.00811 12.9999L7.12602 9.43755L6.73855 9.31595ZM6.97697 9.1737H6.93228V9.57981H6.97697V9.1737ZM8.28861 12.8783L7.17071 9.31595L6.78323 9.43755L7.90114 12.9999L8.28861 12.8783ZM14.4892 8.14892H17.7385V7.74281H14.4892V8.14892ZM14.4743 8.14892H14.4892V7.74281H14.4743V8.14892ZM14.6773 16.0543V7.94587H14.2712V16.0543H14.6773ZM17.7385 15.8512H14.4743V16.2573H17.7385V15.8512ZM19.3904 15.4149C19.0202 15.6925 18.4726 15.8512 17.7385 15.8512V16.2573C18.5248 16.2573 19.1696 16.0881 19.6341 15.7397L19.3904 15.4149ZM20.0395 13.7738C20.0395 14.5499 19.8016 15.0806 19.3842 15.4197L19.6403 15.7349C20.1768 15.299 20.4456 14.6372 20.4456 13.7738H20.0395ZM19.7345 12.5802C19.9254 12.8474 20.0395 13.2482 20.0395 13.7738H20.4456C20.4456 13.1964 20.3212 12.7028 20.065 12.3441L19.7345 12.5802ZM18.7968 12.0193C19.2232 12.1156 19.5327 12.3027 19.7355 12.5816L20.064 12.3427C19.7898 11.9658 19.384 11.7355 18.8862 11.6231L18.7968 12.0193ZM19.491 11.0398C19.3195 11.3037 19.0693 11.514 18.7675 11.6321L18.9155 12.0103C19.2993 11.8601 19.6155 11.5934 19.8315 11.2611L19.491 11.0398ZM19.7414 9.98787C19.7414 10.4166 19.6453 10.7557 19.483 11.0532L19.8395 11.2477C20.035 10.8894 20.1475 10.4832 20.1475 9.98787H19.7414ZM19.2524 8.67366C19.5761 8.98441 19.7414 9.41812 19.7414 9.98787H20.1475C20.1475 9.33539 19.9552 8.78539 19.5336 8.38071L19.2524 8.67366ZM17.7385 8.14892C18.403 8.14892 18.9109 8.33227 19.2494 8.67077L19.5366 8.38361C19.1 7.94699 18.4751 7.74281 17.7385 7.74281V8.14892ZM15.4487 9.03393V11.3591H15.8548V9.03393H15.4487ZM17.457 8.84581L15.6535 8.83089L15.6501 9.23698L17.4536 9.2519L17.457 8.84581ZM18.6106 9.1586C18.3353 8.93829 17.953 8.8458 17.4553 8.8458V9.25191C17.9116 9.25191 18.1851 9.33826 18.3569 9.47569L18.6106 9.1586ZM18.9998 10.1518C18.9998 9.73338 18.8872 9.37585 18.6092 9.15747L18.3583 9.47682C18.4977 9.58634 18.5937 9.79523 18.5937 10.1518H18.9998ZM18.6273 11.2195C18.8701 10.9768 18.9998 10.6054 18.9998 10.1518H18.5937C18.5937 10.533 18.485 10.7876 18.3402 10.9324L18.6273 11.2195ZM17.4255 11.5622C17.9378 11.5622 18.3536 11.455 18.6159 11.2301L18.3516 10.9218C18.1966 11.0547 17.897 11.1561 17.4255 11.1561V11.5622ZM15.6518 11.5622H17.4255V11.1561H15.6518V11.5622ZM15.4487 12.4472V14.9662H15.8548V12.4472H15.4487ZM17.6028 12.2293L15.6502 12.2442L15.6533 12.6503L17.6059 12.6354L17.6028 12.2293ZM18.8709 12.5925C18.5783 12.3365 18.1465 12.2293 17.6044 12.2293V12.6354C18.1056 12.6354 18.419 12.7368 18.6034 12.8981L18.8709 12.5925ZM19.283 13.744C19.283 13.2496 19.1552 12.8577 18.8757 12.5969L18.5986 12.8938C18.7663 13.0503 18.8769 13.3142 18.8769 13.744H19.283ZM18.7156 14.8967C19.0932 14.645 19.283 14.2637 19.283 13.744H18.8769C18.8769 14.1484 18.7389 14.3931 18.4904 14.5588L18.7156 14.8967ZM17.5746 15.1693C18.0226 15.1693 18.4296 15.0934 18.718 14.895L18.488 14.5604C18.2994 14.69 17.991 14.7632 17.5746 14.7632V15.1693ZM15.6518 15.1693H17.5746V14.7632H15.6518V15.1693Z" fill="url(#paint1_linear_41_3127)"/>
</g>
</g>
</g>
<defs>
<linearGradient id="paint0_linear_41_3127" x1="1" y1="11.9999" x2="23" y2="11.9999" gradientUnits="userSpaceOnUse">
<stop stop-color="#3F5EFB"/>
<stop offset="1" stop-color="#FC466B"/>
</linearGradient>
<linearGradient id="paint1_linear_41_3127" x1="1" y1="11.9999" x2="23" y2="11.9999" gradientUnits="userSpaceOnUse">
<stop stop-color="#3F5EFB"/>
<stop offset="1" stop-color="#FC466B"/>
</linearGradient>
</defs>
</svg>
