<svg width="24" height="24" viewBox="0 0 24 24" fill="none" xmlns="http://www.w3.org/2000/svg">
<g id="Group 69">
<g id="left-align 1">
<path id="Vector" d="M20.2201 7.00761H4.03774C3.53536 7.00761 3.12891 6.60116 3.12891 6.09878C3.12891 5.59639 3.53536 5.18994 4.03774 5.18994H20.2201C20.7225 5.18994 21.1289 5.59639 21.1289 6.09878C21.1289 6.60116 20.7225 7.00761 20.2201 7.00761ZM15.5244 10.8954H4.03774C3.53536 10.8954 3.12891 10.489 3.12891 9.98658C3.12891 9.48419 3.53536 9.07774 4.03774 9.07774H15.5244C16.0268 9.07774 16.4333 9.48419 16.4333 9.98658C16.4333 10.489 16.0268 10.8954 15.5244 10.8954ZM20.2201 14.758H4.03774C3.53536 14.758 3.12891 14.3515 3.12891 13.8491C3.12891 13.3467 3.53536 12.9403 4.03774 12.9403H20.2201C20.7225 12.9403 21.1289 13.3467 21.1289 13.8491C21.1289 14.3515 20.7225 14.758 20.2201 14.758ZM15.5244 18.6458H4.03774C3.53536 18.6458 3.12891 18.2393 3.12891 17.7369C3.12891 17.2345 3.53536 16.8281 4.03774 16.8281H15.5244C16.0268 16.8281 16.4333 17.2345 16.4333 17.7369C16.4333 18.2393 16.0268 18.6458 15.5244 18.6458Z" fill="url(#paint0_linear_41_3122)" stroke="url(#paint1_linear_41_3122)" stroke-width="0.2"/>
</g>
</g>
<defs>
<linearGradient id="paint0_linear_41_3122" x1="3.12891" y1="11.9179" x2="21.1289" y2="11.9179" gradientUnits="userSpaceOnUse">
<stop stop-color="#3F5EFB"/>
<stop offset="1" stop-color="#FC466B"/>
</linearGradient>
<linearGradient id="paint1_linear_41_3122" x1="3.12891" y1="11.9179" x2="21.1289" y2="11.9179" gradientUnits="userSpaceOnUse">
<stop stop-color="#3F5EFB"/>
<stop offset="1" stop-color="#FC466B"/>
</linearGradient>
</defs>
</svg>
