<svg width="80" height="80" viewBox="0 0 80 80" fill="none" xmlns="http://www.w3.org/2000/svg">
<g id="Group 4">
<rect id="Rectangle 4" width="80" height="80" rx="21.8182" fill="black"/>
<g id="Union">
<mask id="path-2-inside-1_41_2696" fill="white">
<path fill-rule="evenodd" clip-rule="evenodd" d="M20.2857 40C20.2857 29.1121 29.1121 20.2857 40 20.2857C43.6153 20.2857 47.0034 21.2589 49.9164 22.9576L53.0314 19.8426C49.2787 17.4116 44.8042 16 40 16C26.7452 16 16 26.7452 16 40C16 44.8042 17.4116 49.2787 19.8426 53.0314L22.9576 49.9164C21.2589 47.0034 20.2857 43.6153 20.2857 40ZM42.0082 27.4365C42.9781 27.5559 43.9301 27.747 44.8642 28.0098L38.3188 34.5552V32.0204C36.5548 32.2937 35.6728 33.0887 35.6728 34.4055V34.48C35.6728 35.126 35.8591 35.6477 36.2318 36.0452C36.3176 36.1425 36.4206 36.2385 36.5408 36.3332L32.6626 40.2114C32.4869 40.0683 32.3226 39.9219 32.1697 39.772C30.8778 38.5297 30.2318 36.8651 30.2318 34.7782V34.7036C30.2318 33.6601 30.4305 32.716 30.8281 31.8713C31.2007 31.0266 31.7349 30.2937 32.4306 29.6726C33.1014 29.0515 33.9212 28.5421 34.8902 28.1446C35.8591 27.7471 36.9399 27.4862 38.1324 27.362V23.6726H42.0082V27.4365ZM32.237 51.2525L27.9136 55.5759C31.2515 58.1697 35.4454 59.7143 40 59.7143C50.8879 59.7143 59.7143 50.8879 59.7143 40C59.7143 35.4454 58.1697 31.2515 55.5759 27.9136L44.4872 39.0023C44.791 39.1194 45.0827 39.2393 45.3622 39.362C46.356 39.8092 47.1883 40.3434 47.8591 40.9645C48.5051 41.5856 49.002 42.3061 49.3498 43.126C49.6728 43.9707 49.8343 44.9397 49.8343 46.0328V46.1074C49.8343 47.1508 49.6479 48.0949 49.2753 48.9397C48.9026 49.7844 48.3809 50.5173 47.7101 51.1384C47.0144 51.7595 46.1821 52.2564 45.2132 52.6291C44.2442 53.0266 43.1759 53.2875 42.0082 53.4117V55.5732H38.1324V53.3372C36.7908 53.1384 35.561 52.803 34.443 52.331C33.6799 52.0324 32.9446 51.6729 32.237 51.2525ZM38.3188 45.1707L35.9676 47.5219C35.9687 47.5224 35.9698 47.523 35.9709 47.5235C36.7411 47.921 37.5237 48.2192 38.3188 48.4179V45.1707ZM58.6259 24.8635L61.2489 22.2406L58.2184 19.2101L19.4285 58L22.459 61.0305L24.8635 58.6259C28.993 61.9858 34.2613 64 40 64C53.2548 64 64 53.2548 64 40C64 34.2613 61.9859 28.993 58.6259 24.8635ZM43.797 47.9334C43.3747 48.3558 42.7163 48.6291 41.8219 48.7533V43.7223C42.8405 44.0949 43.5237 44.48 43.8715 44.8775C44.2194 45.2999 44.3933 45.7968 44.3933 46.3682V46.4428C44.3933 47.039 44.1945 47.5359 43.797 47.9334Z"/>
</mask>
<path fill-rule="evenodd" clip-rule="evenodd" d="M20.2857 40C20.2857 29.1121 29.1121 20.2857 40 20.2857C43.6153 20.2857 47.0034 21.2589 49.9164 22.9576L53.0314 19.8426C49.2787 17.4116 44.8042 16 40 16C26.7452 16 16 26.7452 16 40C16 44.8042 17.4116 49.2787 19.8426 53.0314L22.9576 49.9164C21.2589 47.0034 20.2857 43.6153 20.2857 40ZM42.0082 27.4365C42.9781 27.5559 43.9301 27.747 44.8642 28.0098L38.3188 34.5552V32.0204C36.5548 32.2937 35.6728 33.0887 35.6728 34.4055V34.48C35.6728 35.126 35.8591 35.6477 36.2318 36.0452C36.3176 36.1425 36.4206 36.2385 36.5408 36.3332L32.6626 40.2114C32.4869 40.0683 32.3226 39.9219 32.1697 39.772C30.8778 38.5297 30.2318 36.8651 30.2318 34.7782V34.7036C30.2318 33.6601 30.4305 32.716 30.8281 31.8713C31.2007 31.0266 31.7349 30.2937 32.4306 29.6726C33.1014 29.0515 33.9212 28.5421 34.8902 28.1446C35.8591 27.7471 36.9399 27.4862 38.1324 27.362V23.6726H42.0082V27.4365ZM32.237 51.2525L27.9136 55.5759C31.2515 58.1697 35.4454 59.7143 40 59.7143C50.8879 59.7143 59.7143 50.8879 59.7143 40C59.7143 35.4454 58.1697 31.2515 55.5759 27.9136L44.4872 39.0023C44.791 39.1194 45.0827 39.2393 45.3622 39.362C46.356 39.8092 47.1883 40.3434 47.8591 40.9645C48.5051 41.5856 49.002 42.3061 49.3498 43.126C49.6728 43.9707 49.8343 44.9397 49.8343 46.0328V46.1074C49.8343 47.1508 49.6479 48.0949 49.2753 48.9397C48.9026 49.7844 48.3809 50.5173 47.7101 51.1384C47.0144 51.7595 46.1821 52.2564 45.2132 52.6291C44.2442 53.0266 43.1759 53.2875 42.0082 53.4117V55.5732H38.1324V53.3372C36.7908 53.1384 35.561 52.803 34.443 52.331C33.6799 52.0324 32.9446 51.6729 32.237 51.2525ZM38.3188 45.1707L35.9676 47.5219C35.9687 47.5224 35.9698 47.523 35.9709 47.5235C36.7411 47.921 37.5237 48.2192 38.3188 48.4179V45.1707ZM58.6259 24.8635L61.2489 22.2406L58.2184 19.2101L19.4285 58L22.459 61.0305L24.8635 58.6259C28.993 61.9858 34.2613 64 40 64C53.2548 64 64 53.2548 64 40C64 34.2613 61.9859 28.993 58.6259 24.8635ZM43.797 47.9334C43.3747 48.3558 42.7163 48.6291 41.8219 48.7533V43.7223C42.8405 44.0949 43.5237 44.48 43.8715 44.8775C44.2194 45.2999 44.3933 45.7968 44.3933 46.3682V46.4428C44.3933 47.039 44.1945 47.5359 43.797 47.9334Z" fill="white"/>
<path d="M49.9164 22.9576L49.7653 23.2167L49.9651 23.3332L50.1286 23.1697L49.9164 22.9576ZM53.0314 19.8426L53.2435 20.0547L53.5058 19.7925L53.1945 19.5908L53.0314 19.8426ZM19.8426 53.0314L19.5908 53.1945L19.7925 53.5058L20.0547 53.2435L19.8426 53.0314ZM22.9576 49.9164L23.1697 50.1286L23.3332 49.9651L23.2167 49.7653L22.9576 49.9164ZM44.8642 28.0098L45.0764 28.2219L45.4386 27.8597L44.9455 27.721L44.8642 28.0098ZM42.0082 27.4365H41.7082V27.7019L41.9715 27.7343L42.0082 27.4365ZM38.3188 34.5552H38.0188V35.2795L38.5309 34.7674L38.3188 34.5552ZM38.3188 32.0204H38.6188V31.6703L38.2728 31.7239L38.3188 32.0204ZM36.2318 36.0452L36.4568 35.8467L36.4507 35.8401L36.2318 36.0452ZM36.5408 36.3332L36.7529 36.5453L36.9917 36.3066L36.7265 36.0976L36.5408 36.3332ZM32.6626 40.2114L32.4732 40.444L32.6832 40.615L32.8747 40.4235L32.6626 40.2114ZM32.1697 39.772L32.3797 39.5577L32.3776 39.5557L32.1697 39.772ZM30.8281 31.8713L31.0996 31.9991L31.1025 31.9924L30.8281 31.8713ZM32.4306 29.6726L32.6304 29.8964L32.6344 29.8927L32.4306 29.6726ZM34.8902 28.1446L35.004 28.4222L35.004 28.4222L34.8902 28.1446ZM38.1324 27.362L38.1635 27.6604L38.4324 27.6324V27.362H38.1324ZM38.1324 23.6726V23.3726H37.8324V23.6726H38.1324ZM42.0082 23.6726H42.3082V23.3726H42.0082V23.6726ZM32.237 51.2525L32.3902 50.9946L32.1897 50.8755L32.0248 51.0404L32.237 51.2525ZM27.9136 55.5759L27.7015 55.3637L27.461 55.6041L27.7295 55.8128L27.9136 55.5759ZM55.5759 27.9136L55.8128 27.7295L55.6041 27.461L55.3637 27.7015L55.5759 27.9136ZM44.4872 39.0023L44.275 38.7901L43.9489 39.1163L44.3793 39.2822L44.4872 39.0023ZM45.3622 39.362L45.4853 39.0884L45.4828 39.0873L45.3622 39.362ZM47.8591 40.9645L48.0671 40.7482L48.0629 40.7444L47.8591 40.9645ZM49.3498 43.126L49.6302 43.0188L49.626 43.0088L49.3498 43.126ZM49.2753 48.9397L49.5497 49.0607L49.5497 49.0607L49.2753 48.9397ZM47.7101 51.1384L47.9099 51.3622L47.9139 51.3585L47.7101 51.1384ZM45.2132 52.6291L45.1054 52.349L45.0993 52.3515L45.2132 52.6291ZM42.0082 53.4117L41.9765 53.1134L41.7082 53.1419V53.4117H42.0082ZM42.0082 55.5732V55.8732H42.3082V55.5732H42.0082ZM38.1324 55.5732H37.8324V55.8732H38.1324V55.5732ZM38.1324 53.3372H38.4324V53.0783L38.1764 53.0404L38.1324 53.3372ZM34.443 52.331L34.5597 52.0545L34.5523 52.0516L34.443 52.331ZM38.3188 45.1707H38.6188V44.4464L38.1066 44.9586L38.3188 45.1707ZM35.9676 47.5219L35.7554 47.3098L35.4573 47.6079L35.8367 47.7918L35.9676 47.5219ZM35.9709 47.5235L36.1086 47.2568L36.1014 47.2534L35.9709 47.5235ZM38.3188 48.4179L38.246 48.709L38.6188 48.8021V48.4179H38.3188ZM61.2489 22.2406L61.461 22.4527L61.6731 22.2406L61.461 22.0285L61.2489 22.2406ZM58.6259 24.8635L58.4138 24.6514L58.2223 24.8429L58.3932 25.0529L58.6259 24.8635ZM58.2184 19.2101L58.4305 18.998L58.2184 18.7859L58.0063 18.998L58.2184 19.2101ZM19.4285 58L19.2164 57.7879L19.0043 58L19.2164 58.2121L19.4285 58ZM22.459 61.0305L22.2469 61.2426L22.459 61.4547L22.6711 61.2426L22.459 61.0305ZM24.8635 58.6259L25.0529 58.3932L24.8429 58.2223L24.6514 58.4138L24.8635 58.6259ZM41.8219 48.7533H41.5219V49.0979L41.8631 49.0505L41.8219 48.7533ZM43.797 47.9334L43.5849 47.7213L43.5849 47.7213L43.797 47.9334ZM41.8219 43.7223L41.9249 43.4405L41.5219 43.2931V43.7223H41.8219ZM43.8715 44.8775L44.1032 44.6867L44.0973 44.68L43.8715 44.8775ZM40 19.9857C28.9464 19.9857 19.9857 28.9464 19.9857 40H20.5857C20.5857 29.2778 29.2778 20.5857 40 20.5857V19.9857ZM50.0675 22.6984C47.1099 20.9737 43.6699 19.9857 40 19.9857V20.5857C43.5608 20.5857 46.8969 21.5441 49.7653 23.2167L50.0675 22.6984ZM52.8192 19.6305L49.7043 22.7454L50.1286 23.1697L53.2435 20.0547L52.8192 19.6305ZM40 16.3C44.7446 16.3 49.1627 17.6939 52.8683 20.0944L53.1945 19.5908C49.3947 17.1293 44.8638 15.7 40 15.7V16.3ZM16.3 40C16.3 26.9109 26.9109 16.3 40 16.3V15.7C26.5795 15.7 15.7 26.5795 15.7 40H16.3ZM20.0944 52.8683C17.6939 49.1627 16.3 44.7446 16.3 40H15.7C15.7 44.8638 17.1293 49.3947 19.5908 53.1945L20.0944 52.8683ZM22.7454 49.7043L19.6305 52.8192L20.0547 53.2435L23.1697 50.1286L22.7454 49.7043ZM19.9857 40C19.9857 43.6699 20.9737 47.1099 22.6984 50.0675L23.2167 49.7653C21.5441 46.8969 20.5857 43.5608 20.5857 40H19.9857ZM44.9455 27.721C43.9967 27.4541 43.0297 27.26 42.0448 27.1388L41.9715 27.7343C42.9265 27.8518 43.8636 28.0399 44.783 28.2986L44.9455 27.721ZM38.5309 34.7674L45.0764 28.2219L44.6521 27.7976L38.1066 34.3431L38.5309 34.7674ZM38.0188 32.0204V34.5552H38.6188V32.0204H38.0188ZM35.9728 34.4055C35.9728 33.8218 36.1645 33.3785 36.5351 33.0445C36.9161 32.7011 37.5132 32.4488 38.3647 32.3169L38.2728 31.7239C37.3603 31.8653 36.6345 32.1471 36.1334 32.5988C35.622 33.0598 35.3728 33.6725 35.3728 34.4055H35.9728ZM35.9728 34.48V34.4055H35.3728V34.48H35.9728ZM36.4507 35.8401C36.1396 35.5082 35.9728 35.0648 35.9728 34.48H35.3728C35.3728 35.1872 35.5787 35.7872 36.0129 36.2504L36.4507 35.8401ZM36.7265 36.0976C36.6181 36.0122 36.5288 35.9284 36.4567 35.8468L36.0068 36.2437C36.1065 36.3567 36.2232 36.4649 36.3551 36.5688L36.7265 36.0976ZM32.8747 40.4235L36.7529 36.5453L36.3287 36.1211L32.4505 39.9992L32.8747 40.4235ZM31.9597 39.9862C32.1195 40.1429 32.2908 40.2955 32.4732 40.444L32.852 39.9787C32.683 39.8412 32.5257 39.7008 32.3797 39.5577L31.9597 39.9862ZM29.9318 34.7782C29.9318 36.9321 30.6013 38.68 31.9617 39.9882L32.3776 39.5557C31.1543 38.3794 30.5318 36.7981 30.5318 34.7782H29.9318ZM29.9318 34.7036V34.7782H30.5318V34.7036H29.9318ZM30.5566 31.7436C30.1382 32.6327 29.9318 33.6212 29.9318 34.7036H30.5318C30.5318 33.6991 30.7229 32.7993 31.0995 31.9991L30.5566 31.7436ZM32.2307 29.4488C31.5035 30.0981 30.9437 30.8659 30.5536 31.7502L31.1025 31.9924C31.4578 31.1873 31.9663 30.4893 32.6304 29.8964L32.2307 29.4488ZM34.7763 27.8671C33.779 28.2762 32.9274 28.8037 32.2267 29.4524L32.6344 29.8927C33.2753 29.2992 34.0635 28.808 35.004 28.4222L34.7763 27.8671ZM38.1013 27.0636C36.8844 27.1904 35.7752 27.4573 34.7763 27.8671L35.004 28.4222C35.943 28.0369 36.9954 27.7821 38.1635 27.6604L38.1013 27.0636ZM37.8324 23.6726V27.362H38.4324V23.6726H37.8324ZM42.0082 23.3726H38.1324V23.9726H42.0082V23.3726ZM42.3082 27.4365V23.6726H41.7082V27.4365H42.3082ZM32.0248 51.0404L27.7015 55.3637L28.1257 55.788L32.4491 51.4646L32.0248 51.0404ZM27.7295 55.8128C31.1182 58.4461 35.3764 60.0143 40 60.0143V59.4143C35.5144 59.4143 31.3848 57.8934 28.0977 55.339L27.7295 55.8128ZM40 60.0143C51.0536 60.0143 60.0143 51.0536 60.0143 40H59.4143C59.4143 50.7222 50.7222 59.4143 40 59.4143V60.0143ZM60.0143 40C60.0143 35.3764 58.4461 31.1182 55.8128 27.7295L55.339 28.0977C57.8934 31.3848 59.4143 35.5144 59.4143 40H60.0143ZM55.3637 27.7015L44.275 38.7901L44.6993 39.2144L55.788 28.1257L55.3637 27.7015ZM44.3793 39.2822C44.6791 39.3978 44.9666 39.5159 45.2416 39.6367L45.4828 39.0873C45.1988 38.9626 44.9029 38.841 44.5951 38.7224L44.3793 39.2822ZM45.2391 39.6356C46.2088 40.072 47.0124 40.5893 47.6553 41.1846L48.0629 40.7444C47.3642 40.0974 46.5032 39.5465 45.4853 39.0884L45.2391 39.6356ZM47.6512 41.1807C48.2681 41.774 48.7417 42.4608 49.0736 43.2432L49.626 43.0088C49.2622 42.1514 48.742 41.3973 48.0671 40.7482L47.6512 41.1807ZM49.0696 43.2331C49.3771 44.0373 49.5343 44.9688 49.5343 46.0328H50.1343C50.1343 44.9105 49.9685 43.9041 49.63 43.0188L49.0696 43.2331ZM49.5343 46.0328V46.1074H50.1343V46.0328H49.5343ZM49.5343 46.1074C49.5343 47.1146 49.3546 48.0167 49.0008 48.8186L49.5497 49.0607C49.9413 48.1732 50.1343 47.1871 50.1343 46.1074H49.5343ZM49.0008 48.8186C48.6445 49.6262 48.1467 50.3253 47.5062 50.9183L47.9139 51.3585C48.6151 50.7093 49.1607 49.9426 49.5497 49.0607L49.0008 48.8186ZM47.5102 50.9146C46.8445 51.509 46.0444 51.988 45.1055 52.3491L45.3209 52.9091C46.3198 52.5249 47.1843 52.01 47.9099 51.3622L47.5102 50.9146ZM45.0993 52.3515C44.1596 52.7371 43.1193 52.9918 41.9765 53.1134L42.0399 53.71C43.2325 53.5832 44.3289 53.3161 45.327 52.9066L45.0993 52.3515ZM41.7082 53.4117V55.5732H42.3082V53.4117H41.7082ZM42.0082 55.2732H38.1324V55.8732H42.0082V55.2732ZM38.4324 55.5732V53.3372H37.8324V55.5732H38.4324ZM38.1764 53.0404C36.8569 52.8449 35.6518 52.5157 34.5597 52.0546L34.3263 52.6073C35.4701 53.0903 36.7247 53.4319 38.0884 53.6339L38.1764 53.0404ZM34.5523 52.0516C33.8045 51.759 33.0839 51.4067 32.3902 50.9946L32.0837 51.5104C32.8053 51.9391 33.5554 52.3058 34.3337 52.6103L34.5523 52.0516ZM38.1066 44.9586L35.7554 47.3098L36.1797 47.734L38.5309 45.3828L38.1066 44.9586ZM35.8367 47.7918C35.8376 47.7923 35.8391 47.793 35.8405 47.7937L36.1014 47.2534C36.1005 47.2529 36.0998 47.2526 36.0984 47.2519L35.8367 47.7918ZM35.8333 47.7901C36.6229 48.1976 37.4272 48.5043 38.246 48.709L38.3915 48.1269C37.6202 47.934 36.8593 47.6444 36.1085 47.2569L35.8333 47.7901ZM38.6188 48.4179V45.1707H38.0188V48.4179H38.6188ZM61.0367 22.0285L58.4138 24.6514L58.838 25.0757L61.461 22.4527L61.0367 22.0285ZM58.0063 19.4223L61.0367 22.4527L61.461 22.0285L58.4305 18.998L58.0063 19.4223ZM19.6407 58.2121L58.4305 19.4223L58.0063 18.998L19.2164 57.7879L19.6407 58.2121ZM22.6711 60.8183L19.6407 57.7879L19.2164 58.2121L22.2469 61.2426L22.6711 60.8183ZM24.6514 58.4138L22.2469 60.8183L22.6711 61.2426L25.0757 58.838L24.6514 58.4138ZM40 63.7C34.3328 63.7 29.1308 61.7112 25.0529 58.3932L24.6742 58.8586C28.8552 62.2605 34.1898 64.3 40 64.3V63.7ZM63.7 40C63.7 53.0891 53.0891 63.7 40 63.7V64.3C53.4205 64.3 64.3 53.4205 64.3 40H63.7ZM58.3932 25.0529C61.7112 29.1308 63.7 34.3328 63.7 40H64.3C64.3 34.1898 62.2605 28.8552 58.8586 24.6742L58.3932 25.0529ZM41.8631 49.0505C42.7908 48.9216 43.5223 48.6324 44.0091 48.1456L43.5849 47.7213C43.227 48.0792 42.6417 48.3366 41.7806 48.4562L41.8631 49.0505ZM41.5219 43.7223V48.7533H42.1219V43.7223H41.5219ZM44.0973 44.68C43.6965 44.2219 42.9509 43.8159 41.9249 43.4405L41.7188 44.004C42.7301 44.374 43.3509 44.7381 43.6458 45.0751L44.0973 44.68ZM44.6933 46.3682C44.6933 45.7306 44.4973 45.1654 44.1031 44.6868L43.64 45.0683C43.9415 45.4344 44.0933 45.863 44.0933 46.3682H44.6933ZM44.6933 46.4428V46.3682H44.0933V46.4428H44.6933ZM44.0091 48.1456C44.4666 47.6881 44.6933 47.1132 44.6933 46.4428H44.0933C44.0933 46.9648 43.9225 47.3837 43.5849 47.7213L44.0091 48.1456Z" fill="black" mask="url(#path-2-inside-1_41_2696)"/>
</g>
</g>
</svg>
