<svg width="80" height="80" viewBox="0 0 80 80" fill="none" xmlns="http://www.w3.org/2000/svg">
<g id="Group 4">
<rect id="Rectangle 4" width="80" height="80" rx="21.8182" fill="black"/>
<g id="&#231;&#155;&#190;&#231;&#137;&#140;-01 1">
<path id="Vector" d="M41.7761 15.4852L59.5381 24.0109C60.6038 24.7214 61.3143 25.7871 61.3143 27.2081V37.51C61.3143 40.7072 60.6038 43.5491 59.5381 46.7463C58.4724 49.5882 57.0514 52.4301 55.2752 54.9168C53.499 57.4035 51.0124 59.8902 48.5257 61.6664C46.039 63.4426 43.1971 64.5083 39.9999 65.2188C36.8028 64.5083 33.9609 63.4426 31.4742 61.6664C28.9875 59.8902 26.5008 57.4035 24.7246 54.9168C22.9484 52.4301 21.5275 49.9434 20.4617 46.7463C19.396 43.5491 18.6855 40.352 18.6855 37.1548V27.2081C18.6855 25.7871 19.396 24.7214 20.4617 24.0109L38.2237 15.4852C39.2895 15.1299 40.7104 15.1299 41.7761 15.4852ZM39.9999 19.3928L22.2379 27.5633V37.1548C22.2379 39.9967 22.5932 42.4834 23.6589 45.3253C24.7246 47.812 25.7903 50.2987 27.5665 52.4301C29.698 55.272 31.4742 57.0482 33.6056 58.4692C35.3818 59.5349 37.5133 60.6006 39.9999 61.3111C42.4866 60.6006 44.618 59.5349 46.3942 58.4692C48.1704 57.0482 50.3019 55.272 52.4333 52.4301C54.2095 50.2987 55.2752 48.1672 56.341 45.3253C57.4067 42.4834 57.7619 39.9967 57.7619 37.1548V27.5633L39.9999 19.3928ZM49.9466 30.4053L52.4333 32.8919L37.5133 47.4568L27.5665 37.51L30.0532 35.0234L37.5133 42.4834L49.9466 30.4053Z" fill="white"/>
</g>
</g>
</svg>
