<svg width="80" height="80" viewBox="0 0 80 80" fill="none" xmlns="http://www.w3.org/2000/svg">
<g id="Group 4">
<rect id="Rectangle 4" width="80" height="80" rx="21.8182" fill="black"/>
<g id="&#231;&#130;&#185;&#232;&#181;&#158; 1">
<path id="Vector" d="M64.2316 34.9713C63.2925 33.6213 61.4729 32.9463 58.5087 32.9463C56.8652 32.9463 55.1043 33.1224 53.4314 33.2985C52.2575 33.4158 51.1422 33.5332 50.3792 33.5332C49.7629 33.5332 49.2346 33.5039 48.765 33.4158L48.2661 33.3278L48.4715 32.8876C51.0249 27.282 49.7922 22.2635 49.2346 19.8276L49.2053 19.7395C49.1759 19.5634 49.1172 19.4167 49.0879 19.2112C48.5596 16.7753 46.1824 15.484 44.0986 15.484C43.8639 15.484 43.5997 15.5134 43.3649 15.5427C41.3986 15.8362 39.5203 17.4503 39.7551 20.4145C40.4007 28.1625 33.4158 32.506 30.5397 33.9735C29.894 33.3571 29.0136 33.005 28.0451 33.005H22.7037C20.6787 33.005 19.0352 34.6485 19.0352 36.6735V58.6554C19.0352 60.6805 20.6787 62.324 22.7037 62.324H28.0744C29.0136 62.324 29.8647 61.9718 30.5104 61.3848V61.4142C32.7115 61.4435 36.3507 61.7076 39.6083 62.0011C42.7193 62.2359 45.6835 62.5001 47.2389 62.5001C50.5553 62.5001 54.664 62.5001 57.863 60.4163C60.7098 58.538 61.5022 53.4901 62.1772 48.9998V48.9411C62.324 48.002 62.4414 47.1215 62.5881 46.3878C62.8229 45.1845 63.3218 43.8932 63.762 42.6899C64.7305 40.0779 65.8164 37.2605 64.2316 34.9713ZM28.3092 58.4206C28.3092 58.6554 28.1038 58.8609 27.869 58.8609H22.9091C22.6744 58.8609 22.4689 58.6554 22.4689 58.4206V36.879C22.4689 36.6442 22.6744 36.4387 22.9091 36.4387H27.8397C28.0744 36.4387 28.2799 36.6442 28.2799 36.879V58.4206H28.3092ZM60.3283 41.2519C59.8294 42.5432 59.2717 44.0399 58.9782 45.5661C58.8315 46.3878 58.6848 47.327 58.538 48.3248C58.0978 51.289 57.3641 56.2489 55.8673 57.2174C53.5782 58.7435 50.2031 58.7435 47.2389 58.7435C45.8595 58.7435 42.9834 58.538 39.9312 58.3032H39.9018C36.9963 58.0685 34.0028 57.8337 31.743 57.775V37.5246C34.7072 36.0865 44.2747 30.6278 43.3943 20.1797C43.3356 19.3286 43.5997 19.2699 43.8932 19.2406H44.0986C44.715 19.2406 45.39 19.5634 45.5367 20.0624C45.5661 20.2384 45.6248 20.4732 45.6835 20.7374C46.2411 23.0265 47.2683 27.3407 44.8323 32.0658C44.2747 33.1224 44.2747 34.2669 44.8617 35.2061C45.7128 36.5561 47.5617 37.2605 50.3498 37.2605C51.289 37.2605 52.4336 37.1431 53.8129 36.9963C55.3391 36.8496 57.0413 36.6442 58.538 36.6442H58.8022C60.3576 36.6735 60.9152 36.9083 61.1207 37.0257L61.1794 37.055C61.6489 37.7594 60.9739 39.5203 60.3283 41.2519Z" fill="#FFFEFE"/>
</g>
</g>
</svg>
